<?xml version="1.0" encoding="UTF-8"?>
<svg width="32px" height="21px" viewBox="0 0 32 21" version="1.1" xmlns="http://www.w3.org/2000/svg" xmlns:xlink="http://www.w3.org/1999/xlink">
    <!-- Generator: Sketch 49.3 (51167) - http://www.bohemiancoding.com/sketch -->
    <title>DB</title>
    <desc>Created with Sketch.</desc>
    <defs>
        <polygon id="path-1" points="0.516 0.0984761905 31.084 0.0984761905 31.084 3.85942857 0.516 3.85942857"></polygon>
        <polygon id="path-3" points="0.336 0.200095238 917.364 0.200095238 917.364 1111.18752 0.336 1111.18752"></polygon>
        <path d="M0.783,4.85361905 L0.783,0.899904762 C0.783,0.773142857 0.881,0.679904762 0.99,0.679904762 L6.991,0.679904762 C7.111,0.679904762 7.198,0.783619048 7.198,0.899904762 L7.198,4.85361905 C7.198,4.98038095 7.1,5.07361905 6.991,5.07361905 L0.99,5.07361905 C0.875193462,5.07190068 0.782988283,4.97390484 0.783,4.85361905 Z" id="path-5"></path>
        <polygon id="path-7" points="0.128 0.194857143 1025.255 0.194857143 1025.255 1216.21029 0.128 1216.21029"></polygon>
    </defs>
    <g id="UI" stroke="none" stroke-width="1" fill="none" fill-rule="evenodd">
        <g id="Membership-Details-Added" transform="translate(-15.000000, -219.000000)">
            <g id="Cells/Table/Cell-Copy" transform="translate(0.000000, 207.000000)">
                <g id="Settings" transform="translate(15.000000, 12.000000)">
                    <g id="Label">
                        <g id="DB">
                            <g id="Da-link">
                                <path d="M0.091,1.29952381 L0.091,19.7135238 C0.091,20.4070476 0.643,20.9832381 1.314,20.9832381 L30.364,20.9832381 C31.039,20.9832381 31.587,20.4154286 31.587,19.7135238 L31.587,1.29952381 C31.587,0.606 31.035,0.0308571429 30.364,0.0308571429 L1.314,0.0308571429 C0.991150305,0.0289072641 0.680813245,0.161541933 0.45139751,0.399524022 C0.221981775,0.637506111 0.092322164,0.961297535 0.091,1.29952381 Z" id="Da"></path>
                            </g>
                            <g id="Da-link">
                                <g id="Visa">
                                    <path d="M0,1.26868787 L0,19.6826879 C0,20.3762117 0.552,20.9524022 1.223,20.9524022 L30.273,20.9524022 C30.948,20.9524022 31.496,20.3845926 31.496,19.6826879 L31.496,1.26868787 C31.496,0.575164056 30.944,2.11987045e-05 30.273,2.11987045e-05 L1.223,2.11987045e-05 C0.900150305,-0.00192868008 0.589813245,0.130705989 0.36039751,0.368688078 C0.130981775,0.606670167 0.00132216397,0.930461591 1.77635684e-15,1.26868787 Z" id="Da" fill="#2566AF"></path>
                                    <g id="visa" transform="translate(5.000000, 7.000000)" fill-rule="nonzero">
                                        <g id="Group" transform="translate(0.859155, 0.619718)" fill="#FFFFFF">
                                            <path d="M8.77774648,6.51904225 L7.13273239,6.51904225 L8.16084507,0.200619718 L9.80602817,0.200619718 L8.77774648,6.51904225 Z M5.74884507,0.200619718 L4.18056338,4.54647887 L3.99498592,3.61064789 L3.99515493,3.61098592 L3.4416338,0.769521127 C3.4416338,0.769521127 3.37470423,0.200619718 2.66129577,0.200619718 L0.0686197183,0.200619718 L0.0381971831,0.307605634 C0.0381971831,0.307605634 0.831042254,0.47256338 1.75892958,1.02980282 L3.18811268,6.51921127 L4.90208451,6.51921127 L7.51926761,0.200619718 L5.74884507,0.200619718 Z M18.6877183,6.51904225 L20.1981972,6.51904225 L18.8812394,0.200450704 L17.5588732,0.200450704 C16.9482254,0.200450704 16.799493,0.671323944 16.799493,0.671323944 L14.3460845,6.51904225 L16.0609014,6.51904225 L16.403831,5.58050704 L18.4950423,5.58050704 L18.6877183,6.51904225 Z M16.8775775,4.284 L17.7419155,1.91949296 L18.228169,4.284 L16.8775775,4.284 Z M14.4747042,1.72005634 L14.7094648,0.363211268 C14.7094648,0.363211268 13.9850704,0.0877183099 13.2299155,0.0877183099 C12.4135775,0.0877183099 10.4749859,0.444507042 10.4749859,2.17943662 C10.4749859,3.81177465 12.7502535,3.83205634 12.7502535,4.68946479 C12.7502535,5.54687324 10.7094085,5.39323944 10.0358873,4.85256338 L9.79132394,6.27126761 C9.79132394,6.27126761 10.5258592,6.62805634 11.6481127,6.62805634 C12.7707042,6.62805634 14.4642254,6.0468169 14.4642254,4.46484507 C14.4642254,2.82202817 12.168507,2.66907042 12.168507,1.9548169 C12.1686761,1.24039437 13.7707606,1.33216901 14.4747042,1.72005634 Z" id="Shape"></path>
                                        </g>
                                        <path d="M4.85430986,4.23053521 L4.30078873,1.38907042 C4.30078873,1.38907042 4.23385915,0.820169014 3.5204507,0.820169014 L0.927774648,0.820169014 L0.897352113,0.92715493 C0.897352113,0.92715493 2.14349296,1.18540845 3.33876056,2.15301408 C4.4816338,3.07785915 4.85430986,4.23053521 4.85430986,4.23053521 Z" id="Shape" fill="#E6A540"></path>
                                    </g>
                                </g>
                            </g>
                            <g id="Clipped" transform="translate(0.000000, 4.238095)">
                                <mask id="mask-2" fill="white">
                                    <use xlink:href="#path-1"></use>
                                </mask>
                                <g id="De"></g>
                                <g mask="url(#mask-2)">
                                    <g transform="translate(-60.000000, -297.523810)">
                                        <mask id="mask-4" fill="white">
                                            <use xlink:href="#path-3"></use>
                                        </mask>
                                        <g id="Dg" stroke="none" fill="none"></g>
                                    </g>
                                </g>
                            </g>
                            <g id="Clipped" transform="translate(3.000000, 12.619048)">
                                <mask id="mask-6" fill="white">
                                    <use xlink:href="#path-5"></use>
                                </mask>
                                <g id="Di"></g>
                                <g mask="url(#mask-6)">
                                    <g transform="translate(-71.000000, -335.238095)">
                                        <mask id="mask-8" fill="white">
                                            <use xlink:href="#path-7"></use>
                                        </mask>
                                        <g id="Dk" stroke="none" fill="none"></g>
                                    </g>
                                </g>
                            </g>
                        </g>
                    </g>
                </g>
            </g>
        </g>
    </g>
</svg>