<?xml version="1.0" encoding="UTF-8"?>
<svg width="419px" height="326px" viewBox="0 0 419 326" version="1.1" xmlns="http://www.w3.org/2000/svg" xmlns:xlink="http://www.w3.org/1999/xlink">
    <!-- Generator: Sketch 50.2 (55047) - http://www.bohemiancoding.com/sketch -->
    <title>Fill 27</title>
    <desc>Created with Sketch.</desc>
    <defs></defs>
    <g id="Page-1" stroke="none" stroke-width="1" fill="none" fill-rule="evenodd" opacity="0.100000001">
        <g id="Signup-and-login" transform="translate(-1021.000000, -698.000000)" fill="#9B9B9B">
            <path d="M1964.26454,847.181553 L1964.26454,847.120388 L1869.76336,796.628641 C1850.51368,739.286408 1796.98209,698 1733.96122,698 C1688.8043,698 1648.52758,719.316019 1622.22872,752.406311 C1610.96208,766.718932 1602.19579,783.233495 1596.86372,801.124272 C1594.96587,807.210194 1593.51988,813.449029 1592.52577,819.901942 L1526.16106,1107.65291 L1180.57052,1302.46359 L1039.16519,1382.31456 L1034.19462,1384.5165 C1033.01975,1385.00583 1032.05576,1385.73981 1031.39302,1386.71845 C1030.57965,1387.85 1030.12778,1389.2568 1030.12778,1390.84709 C1030.12778,1394.51699 1033.14025,1397.57524 1036.75522,1397.57524 L1036.84559,1397.57524 L1037.93008,1397.39175 L1038.14095,1397.39175 L1226.84206,1378.9199 L1253.08067,1376.35097 L1233.58999,1387.29951 L1024.55471,1504.27767 C1022.38574,1505.50097 1021,1507.79466 1021,1510.27184 C1021,1514.00291 1024.01247,1517 1027.68768,1517 C1028.10943,1517 1028.5613,1517 1028.95292,1516.93883 L1030.39891,1516.44951 L1278.1143,1433.72379 L1339.17706,1413.29466 C1400.69169,1464.88738 1479.6184,1495.98981 1565.71479,1495.98981 C1740.22716,1495.98981 1885.51858,1368.21602 1915.61315,1199.85922 C1915.94452,1198.60534 1916.12527,1197.32087 1916.24577,1196.00583 C1919.71011,1176.12718 1921.48747,1155.72864 1921.48747,1134.77961 C1921.48747,1118.44854 1920.40298,1102.36214 1918.29425,1086.52039 C1916.57714,1073.52282 1914.10692,1060.80049 1911.1547,1048.3534 C1911.06432,1047.89466 1910.88357,1047.37476 1910.85345,1046.97718 C1909.10622,1039.6068 1907.26861,1032.45049 1905.25025,1025.26359 C1896.33334,994.528155 1872.71558,946.23835 1857.17124,919.11165 L1964.23441,858.558252 C1964.23441,858.558252 1964.26454,858.588835 1964.26454,858.558252 L1965.5599,857.793689 C1967.06613,856.662136 1968,854.857767 1968,852.83932 C1968,850.300971 1966.43352,848.068447 1964.26454,847.181553" id="Fill-27" transform="translate(1494.500000, 1107.500000) scale(-1, 1) translate(-1494.500000, -1107.500000) "></path>
        </g>
    </g>
</svg>