<?xml version="1.0" encoding="UTF-8"?>
<svg width="75px" height="75px" viewBox="0 0 75 75" version="1.1" xmlns="http://www.w3.org/2000/svg" xmlns:xlink="http://www.w3.org/1999/xlink">
    <!-- Generator: Sketch 50.2 (55047) - http://www.bohemiancoding.com/sketch -->
    <title>002-money</title>
    <desc>Created with Sketch.</desc>
    <defs></defs>
    <g id="Page-1" stroke="none" stroke-width="1" fill="none" fill-rule="evenodd">
        <g id="First-screen" transform="translate(-1122.000000, -524.000000)" fill="#FFFFFF">
            <g id="Iphone-mocks" transform="translate(779.000000, 270.000000)">
                <g id="Earn" transform="translate(260.000000, 234.000000)">
                    <g id="Group-4" transform="translate(60.000000, 20.000000)">
                        <g id="002-money" transform="translate(23.000000, 0.000000)">
                            <path d="M49.8138312,18 C49.8350649,17.9094156 49.8701299,17.7457792 49.8701299,17.6483766 L49.8701299,10.1682468 C49.8701299,9.47883117 49.3131818,8.92168831 48.6237662,8.92168831 C47.9341558,8.92168831 47.3764286,9.47883117 47.3764286,10.1682468 L47.3764286,15.7749351 C44.6279221,13.7902597 41.2651948,12.6617532 37.627013,12.6617532 L37.5183117,12.6617532 C34.7772078,12.6617532 32.1999351,13.3162987 29.9224675,14.5055844 L29.9224675,8.92168831 C29.9224675,8.23227273 29.3637662,7.67454545 28.6751299,7.67454545 C27.9872727,7.67454545 27.4287662,8.23227273 27.4287662,8.92168831 L27.4287662,16.1105844 C23.4488961,19.1908442 20.8844805,24.1630519 20.9195455,29.5725974 C20.9781818,38.7475325 28.4606494,46.3242857 37.6233117,46.3242857 L37.732013,46.3242857 C46.9441558,46.3242857 54.390974,38.5694805 54.3307792,29.3573377 C54.3035065,24.9931169 52.582987,20.9616234 49.8138312,18 Z M37.7152597,43.8305844 L37.6233117,43.8305844 C29.8287662,43.8305844 23.4625325,37.3899351 23.4132468,29.5840909 C23.3614286,21.7476623 29.6978571,15.1554545 37.5335065,15.1554545 L37.6256494,15.1554545 C45.4207792,15.1554545 51.7862338,21.5962987 51.8364935,29.4021429 C51.8873377,37.2377922 45.5524675,43.8305844 37.7152597,43.8305844 Z" id="Fill-1"></path>
                            <path d="M28.6751299,0.194220779 C27.9872727,0.194220779 27.4287662,0.751363636 27.4287662,1.44077922 L27.4287662,3.93448052 C27.4287662,4.6238961 27.9872727,5.18084416 28.6751299,5.18084416 C29.3637662,5.18084416 29.9224675,4.6238961 29.9224675,3.93448052 L29.9224675,1.44077922 C29.9224675,0.751363636 29.3637662,0.194220779 28.6751299,0.194220779 Z" id="Fill-2"></path>
                            <path d="M48.6237662,1.44077922 C47.9341558,1.44077922 47.3764286,1.99850649 47.3764286,2.68792208 L47.3764286,5.18084416 C47.3764286,5.87025974 47.9341558,6.42798701 48.6237662,6.42798701 C49.3131818,6.42798701 49.8701299,5.87025974 49.8701299,5.18084416 L49.8701299,2.68792208 C49.8701299,1.99850649 49.3131818,1.44077922 48.6237662,1.44077922 Z" id="Fill-3"></path>
                            <path d="M14.9612338,28.8695455 C14.2725974,28.8695455 13.7138961,29.4264935 13.7138961,30.1159091 L13.7138961,40.0905195 C13.7138961,40.7799351 14.2725974,41.3370779 14.9612338,41.3370779 C15.6490909,41.3370779 16.2075974,40.7799351 16.2075974,40.0905195 L16.2075974,30.1159091 C16.2075974,29.4264935 15.6490909,28.8695455 14.9612338,28.8695455 Z" id="Fill-4"></path>
                            <path d="M14.9612338,21.3892208 C14.2725974,21.3892208 13.7138961,21.9463636 13.7138961,22.6357792 L13.7138961,25.1292857 C13.7138961,25.8188961 14.2725974,26.3758442 14.9612338,26.3758442 C15.6490909,26.3758442 16.2075974,25.8188961 16.2075974,25.1292857 L16.2075974,22.6357792 C16.2075974,21.9463636 15.6490909,21.3892208 14.9612338,21.3892208 Z" id="Fill-5"></path>
                            <path d="M62.3376623,17.6483766 C61.6482468,17.6483766 61.0912987,18.2061039 61.0912987,18.8955195 L61.0912987,28.8695455 C61.0912987,29.558961 61.6482468,30.1159091 62.3376623,30.1159091 C63.0270779,30.1159091 63.584026,29.558961 63.584026,28.8695455 L63.584026,18.8955195 C63.584026,18.2061039 63.0270779,17.6483766 62.3376623,17.6483766 Z" id="Fill-6"></path>
                            <path d="M62.3376623,10.1682468 C61.6482468,10.1682468 61.0912987,10.7251948 61.0912987,11.4146104 L61.0912987,13.9083117 C61.0912987,14.5977273 61.6482468,15.1554545 62.3376623,15.1554545 C63.0270779,15.1554545 63.584026,14.5977273 63.584026,13.9083117 L63.584026,11.4146104 C63.584026,10.7251948 63.0270779,10.1682468 62.3376623,10.1682468 Z" id="Fill-7"></path>
                            <g id="Group" transform="translate(37.500000, 30.000000) rotate(-50.000000) translate(-37.500000, -30.000000) translate(27.000000, 28.500000)">
                                <path d="M2.92246753,1.61590909 C2.92246753,2.30454545 2.36376623,2.86305195 1.67512987,2.86305195 C0.986493506,2.86305195 0.428766234,2.30454545 0.428766234,1.61590909 C0.428766234,0.928051948 0.986493506,0.369545455 1.67512987,0.369545455 C2.36376623,0.369545455 2.92246753,0.928051948 2.92246753,1.61590909 Z" id="Fill-9"></path>
                                <path d="M20.3764286,1.61590909 C20.3764286,2.30454545 19.8187013,2.86305195 19.1300649,2.86305195 C18.4414286,2.86305195 17.8827273,2.30454545 17.8827273,1.61590909 C17.8827273,0.928051948 18.4414286,0.369545455 19.1300649,0.369545455 C19.8187013,0.369545455 20.3764286,0.928051948 20.3764286,1.61590909 Z" id="Fill-10"></path>
                            </g>
                            <g id="Group-Copy" transform="translate(34.500000, 25.500000) rotate(-50.000000) translate(-34.500000, -25.500000) translate(24.000000, 24.000000)">
                                <path d="M2.92246753,1.61590909 C2.92246753,2.30454545 2.36376623,2.86305195 1.67512987,2.86305195 C0.986493506,2.86305195 0.428766234,2.30454545 0.428766234,1.61590909 C0.428766234,0.928051948 0.986493506,0.369545455 1.67512987,0.369545455 C2.36376623,0.369545455 2.92246753,0.928051948 2.92246753,1.61590909 Z" id="Fill-9"></path>
                                <path d="M20.3764286,1.61590909 C20.3764286,2.30454545 19.8187013,2.86305195 19.1300649,2.86305195 C18.4414286,2.86305195 17.8827273,2.30454545 17.8827273,1.61590909 C17.8827273,0.928051948 18.4414286,0.369545455 19.1300649,0.369545455 C19.8187013,0.369545455 20.3764286,0.928051948 20.3764286,1.61590909 Z" id="Fill-10"></path>
                            </g>
                            <g id="Group-Copy-2" transform="translate(42.750000, 33.750000) rotate(-50.000000) translate(-42.750000, -33.750000) translate(32.250000, 32.250000)">
                                <path d="M2.92246753,1.61590909 C2.92246753,2.30454545 2.36376623,2.86305195 1.67512987,2.86305195 C0.986493506,2.86305195 0.428766234,2.30454545 0.428766234,1.61590909 C0.428766234,0.928051948 0.986493506,0.369545455 1.67512987,0.369545455 C2.36376623,0.369545455 2.92246753,0.928051948 2.92246753,1.61590909 Z" id="Fill-9"></path>
                                <path d="M20.3764286,1.61590909 C20.3764286,2.30454545 19.8187013,2.86305195 19.1300649,2.86305195 C18.4414286,2.86305195 17.8827273,2.30454545 17.8827273,1.61590909 C17.8827273,0.928051948 18.4414286,0.369545455 19.1300649,0.369545455 C19.8187013,0.369545455 20.3764286,0.928051948 20.3764286,1.61590909 Z" id="Fill-10"></path>
                            </g>
                            <path d="M73.5588312,48.8172078 L59.843961,48.8172078 C58.2208442,48.8172078 56.8496104,49.8635065 56.332987,51.3109091 L50.0924026,51.3109091 C49.4174026,51.3109091 48.8756494,51.8481818 48.8526623,52.5177273 L38.4512338,50.1580519 C37.7008442,49.9883766 36.9216234,50.047013 36.2041558,50.3322078 L26.4424675,54.2047403 C25.1816883,54.7048052 24.2577273,55.7199351 23.8780519,56.9466234 L4.81383117,51.3549351 C3.65181818,51.0171429 2.43272727,51.2325974 1.47019481,51.9531818 C0.536493506,52.6538961 0,53.7163636 0,54.8692208 L0,57.5735065 C0,58.8101299 0.628636364,59.9546104 1.67941558,60.6340909 L15.5296753,69.5974675 C15.6514286,69.6757792 15.7875974,69.7328571 15.9298052,69.7655844 L36.5511039,74.4744156 C36.8302597,74.5390909 37.1172078,74.5702597 37.4025974,74.5702597 C37.6895455,74.5702597 37.9749351,74.5390909 38.2540909,74.4744156 L49.1068831,71.9846104 C49.3328571,72.2927922 49.6805844,72.5059091 50.0931818,72.5059091 L56.3345455,72.5059091 C56.8503896,73.9531169 58.2224026,74.9994156 59.8455195,74.9994156 L73.5594156,74.9994156 C74.249026,74.9994156 74.8067532,74.4416883 74.8067532,73.7522727 L74.8067532,50.0643506 C74.8051948,49.3749351 74.2482468,48.8172078 73.5588312,48.8172078 Z M48.5444805,69.5563636 L37.6955844,72.0448052 C37.5044805,72.0896104 37.3012987,72.0896104 37.1080519,72.0448052 L16.7000649,67.3838961 L3.03311688,58.5399351 C2.69532468,58.32 2.4937013,57.9601948 2.4937013,57.5721429 L2.4937013,54.8684416 C2.4937013,54.3744156 2.78746753,54.0816234 2.96318182,53.9507143 C3.2925974,53.7048701 3.7088961,53.6273377 4.11077922,53.7483117 L23.9055195,59.5618831 C24.486039,61.2802597 26.1481169,62.5318831 28.1022078,62.5318831 L37.4025974,62.5318831 C38.0904545,62.5318831 38.648961,61.9741558 38.648961,61.2847403 C38.648961,60.5953247 38.0904545,60.0383766 37.4025974,60.0383766 L28.1022078,60.0383766 C27.0436364,60.0383766 26.1814286,59.2196104 26.1814286,58.2181169 C26.1814286,57.4776623 26.6456494,56.8125974 27.3640909,56.5272078 L37.1255844,52.6525325 C37.372987,52.5543506 37.6422078,52.5329221 37.9011039,52.5915584 L48.6183117,55.0229221 L48.5444805,69.5563636 Z M51.1164935,70.0122078 L56.1038961,70.0122078 L56.1038961,53.8046104 L51.1164935,53.8046104 L51.1164935,70.0122078 Z M72.3114935,72.5059091 L59.843961,72.5059091 C59.1561039,72.5059091 58.5975974,71.9474026 58.5975974,71.2593506 L58.5975974,52.5580519 C58.5975974,51.8694156 59.1561039,51.3109091 59.843961,51.3109091 L72.3114935,51.3109091 L72.3114935,72.5059091 Z" id="Fill-11"></path>
                            <path d="M67.5479221,67.5185065 L63.8078571,67.5185065 C63.1184416,67.5185065 62.5607143,68.0762338 62.5607143,68.7656494 C62.5607143,69.4552597 63.1184416,70.0122078 63.8078571,70.0122078 L67.5479221,70.0122078 C68.2373377,70.0122078 68.7944805,69.4552597 68.7944805,68.7656494 C68.7944805,68.0762338 68.2373377,67.5185065 67.5479221,67.5185065 Z" id="Fill-12"></path>
                        </g>
                    </g>
                </g>
            </g>
        </g>
    </g>
</svg>