<?xml version="1.0" encoding="UTF-8"?>
<svg width="152px" height="126px" viewBox="0 0 152 126" version="1.1" xmlns="http://www.w3.org/2000/svg" xmlns:xlink="http://www.w3.org/1999/xlink">
    <!-- Generator: Sketch 49.3 (51167) - http://www.bohemiancoding.com/sketch -->
    <title>Feather</title>
    <desc>Created with Sketch.</desc>
    <defs></defs>
    <g id="UI" stroke="none" stroke-width="1" fill="none" fill-rule="evenodd">
        <g id="404-page" transform="translate(-112.000000, -206.000000)" fill="#D8D8D9">
            <g id="Message" transform="translate(47.000000, 206.000000)">
                <g id="Feather" transform="translate(65.000000, 0.000000)">
                    <path d="M0,90.933 C1.381,92.124 5.727,97.053 8.367,99.223 C11.915,102.139 16.181,104.614 21.231,106.383 C15.68,104.52 13.19,103.286 7.919,99.157 C13.366,104.021 15.256,105.767 24.092,108.261 C21.684,107.897 20.564,107.804 16.85,106.49 C22.97,110.255 29.632,113.266 36.744,115.409 C43.692,117.503 51.196,119.019 59.236,120.302 C64.167,121.088 67.071,118.73 69.647,117.169 C67.591,119.236 66.303,119.897 62.64,120.84 C74.928,125.127 75.612,110.698 80.68,105.774 C77.963,109.753 77.683,113.679 77.431,116.979 C77.186,120.181 77.018,122.915 74.779,124.406 C80.047,125.477 81.444,125.532 86.339,125.299 C84.399,121.508 84.768,118.924 84.333,115.312 C84.904,117.834 85.524,122.332 87.399,125.114 C89.196,125.078 90.217,124.958 91.801,124.6 C88.984,119.921 87.403,116.266 86.95,112.798 C86.491,109.278 87.206,105.82 88.968,101.601 C87.284,107.06 86.915,110.645 87.607,113.933 C88.293,117.182 90.023,120.312 92.453,124.625 C94.402,123.632 94.991,123.468 95.062,122.749 C95.214,121.232 92.977,120.166 91.339,114.589 C92.88,118.442 93.041,118.565 95.978,122.264 C100.226,120.437 100.941,123.912 101.14,118.543 C101.419,111.056 100.387,107.83 101.318,97.044 C101.043,102.58 102.114,106.99 102.727,111.19 C103.325,115.282 103.356,119.067 100.869,122.849 C104.025,119.125 104.078,115.293 103.446,110.996 C102.807,106.653 101.601,101.923 102.084,95.977 C102.248,98.68 103.672,103.678 104.485,108.849 C105.269,113.844 105.297,118.952 102.804,121.934 C106.054,119.102 106.092,113.904 105.393,108.523 C104.659,102.872 103.323,97.147 103.806,92.922 C104.114,97.533 105.554,102.161 106.389,107.02 C107.216,111.828 107.22,116.675 104.482,121.371 C107.861,117.538 107.823,110.906 107.247,104.508 C106.648,97.844 105.73,91.675 107.178,88.768 C106.497,94.315 107.53,98.048 108.432,102.183 C109.324,106.274 109.959,110.641 108.184,116.896 C110.477,111.865 110.315,106.221 109.98,102.959 C108.516,88.72 107.964,89.623 113.097,77.135 C110.706,80.611 107.725,83.413 104.049,85.543 C100.136,87.809 94.394,86.879 89.444,84.183 C84.476,81.479 80.514,76.99 79.592,71.938 C79.141,77.289 85.703,86.493 93.256,88.079 C88.333,87.708 84.745,83.907 81.298,80.383 C77.87,76.875 74.582,73.674 69.464,74.902 C72.251,76.609 74.024,80.689 76.661,84.31 C79.337,87.984 82.817,91.227 88.271,91.986 C79.07,91.398 76.177,84.356 71.196,77.904 C68.303,74.155 62.79,76.713 59.831,78.738 C63.256,85.046 66.052,88.284 69.275,90.443 C72.522,92.619 76.14,93.787 81.566,95.73 C72.544,93.96 67.108,90.411 63.261,86.565 C59.517,82.822 57.387,78.69 54.14,76.516 C57.095,79.526 58.218,82.318 60.085,85.141 C61.967,87.986 64.631,90.892 70.567,94.49 C64.551,91.331 60.861,87.538 58.48,84.156 C56.112,80.795 54.887,77.885 53.044,77.255 C49.388,77.01 45.363,79.657 41.754,81.248 C44.218,81.608 47.447,84.7 51.871,88.145 C56.475,91.729 62.539,95.743 69.273,98.848 C59.225,94.718 53.072,89.851 48.397,86.277 C43.902,82.84 40.455,80.857 33.938,83.711 C39.281,89.93 41.821,91.94 49.69,96.64 C40.231,91.976 37.794,88.782 33.304,83.888 C25.29,84.513 18.947,86.862 14.983,88.42 C17.287,91.335 22.87,94.969 28.802,97.568 C33.216,99.503 39.337,101.869 44.661,102.698 C37.562,101.879 32.159,99.508 28.399,97.929 C23.577,95.902 19.438,93.079 14.37,88.67 C9.216,90.554 6.3,92.314 0,90.933" id="Fill-126"></path>
                    <path d="M16.3,88.053 C22.152,86.521 28.024,85.284 32.186,86.781 C37.96,88.858 43.854,95.505 50.077,98.035 C57.484,101.048 66.301,103.389 79.438,101.955 C70.738,104.618 58.706,103.618 46.707,101.059 C34.937,98.549 23.856,93.896 16.3,88.053" id="Fill-127"></path>
                    <path d="M87.764,83.888 C94.918,85.734 101.679,83.075 107.737,77.509 C113.982,71.77 118.836,61.806 123.544,51.213 C122.714,56.488 122.694,60.386 121.105,66.375 C118.367,76.699 114.185,86.367 120.462,93.401 C113.414,86.464 116.697,76.212 116.543,76.479 C112.078,83.331 109.676,91.423 108.541,98.881 C108.283,96.385 107.565,88.586 107.525,88.649 C102.986,98.967 101.274,99.126 97.689,106.525 C98.18,94.935 98.309,98.602 88.867,88.926 C91.545,89.267 94.223,89.54 96.875,89.798 C95.51,89.119 94.175,88.424 92.84,87.728 C92.84,87.728 87.628,84.357 87.764,83.888" id="Fill-128"></path>
                    <path d="M102.473,123.455 C114.244,115.984 114.495,109.492 113.058,102.971 C111.582,96.266 108.635,89.792 112.546,78.183 C111.998,79.102 111.48,80.006 110.964,80.879 C108.062,92.206 110.985,97.911 112.365,103.828 C113.724,109.654 113.365,115.506 102.473,123.455" id="Fill-129"></path>
                    <path d="M129.216,27.222 C132.585,38.847 135.656,38.764 140.301,32.702 C143.315,28.77 145.685,25.096 151.537,30.05 C145.907,26.497 143.736,28.8 140.493,33.43 C135.297,40.848 131.893,38.266 128.883,27.883 C128.998,27.68 129.114,27.447 129.216,27.222" id="Fill-130"></path>
                    <path d="M128.505,29.246 C129.427,34.368 129.799,35.903 131.17,37.491 C131.686,38.089 133.096,39.061 134.425,40.915 C136.321,43.56 136.991,45.573 139.456,45.839 C142.188,46.134 145.086,44.724 148.088,43.085 C145.434,45.225 142.292,46.941 139.266,46.591 C136.389,46.257 135.687,43.427 134.2,41.532 C133.163,40.209 131.929,39.447 130.812,38.208 C129.841,37.132 129.122,35.662 128.241,29.587 C128.333,29.48 128.424,29.374 128.505,29.246" id="Fill-131"></path>
                    <path d="M128.739,28.441 C132.2,44.147 145.808,47.009 147.188,23.148 C146.658,49.492 130.744,43.814 128.739,28.441" id="Fill-132"></path>
                    <path d="M125.32,44.449 C124.468,56.305 125.265,64.75 126.929,71.655 C128.549,78.381 131.085,83.909 133.253,89.449 C136.4,97.488 135.848,102.3 134.286,109.286 C136.329,103.18 136.698,96.721 133.52,88.908 C129.527,79.093 127.337,72.949 126.304,66.667 C125.246,60.231 125.269,53.414 125.558,41.866 C125.475,42.743 125.395,43.59 125.32,44.449" id="Fill-133"></path>
                    <path d="M141.392,94.748 C134.86,88.445 130.622,80.083 128.364,70.645 C126.048,60.966 125.616,49.588 126.143,38.064 C124.884,48.831 125.547,61.233 128.119,71.569 C130.627,81.652 135.218,90.406 141.392,94.748" id="Fill-134"></path>
                    <path d="M126.478,38.952 C126.831,43.131 127.523,49.877 128.715,55.368 C131.146,66.566 133.681,66.501 139.245,67.412 C142.265,67.908 143.506,72.233 143.705,77.539 C143.002,70.69 141.545,68.855 139.311,68.222 C135.204,67.057 131.366,69.589 128.357,55.776 C127.262,50.751 126.542,44.867 126.225,40.444 C126.315,39.957 126.371,39.476 126.478,38.952" id="Fill-135"></path>
                    <path d="M123.797,51.37 C122.287,64.49 122.864,72.825 124.268,79.41 C125.663,85.945 127.96,91.112 129.229,96.834 C131.066,105.107 130.115,111.873 127.482,117.653 C129.521,111.197 130.469,104.32 128.691,97.016 C127.516,92.186 125.296,86.881 123.846,80.627 C122.381,74.303 121.638,66.733 122.935,56.86 C123.232,55.035 123.525,53.239 123.797,51.37" id="Fill-136"></path>
                    <path d="M126.795,31.124 C127.857,43.811 129.903,50.799 132.269,55.768 C134.623,60.713 137.233,63.899 139.285,68.687 C142.08,75.211 142.726,81.442 142.705,88.814 C142.464,82.023 141.583,74.764 138.967,69.171 C137.224,65.441 134.551,61.853 132.164,56.982 C129.769,52.099 127.643,45.718 126.922,36.229 C126.856,34.531 126.81,32.835 126.795,31.124" id="Fill-137"></path>
                    <path d="M120.496,63.028 C119.615,66.837 118.215,72.787 117.543,78.105 C116.199,88.72 119.315,91.714 125.901,98.596 C129.347,102.196 129.282,106.675 127.531,110.845 C129.249,105.001 128.159,102.152 125.691,99.273 C123.366,96.563 120.753,94.554 118.91,91.556 C117.074,88.568 116.131,84.613 116.975,77.992 C117.596,73.126 118.725,67.816 119.774,63.972 C120.008,63.646 120.256,63.343 120.496,63.028" id="Fill-138"></path>
                    <path d="M113.989,75.816 C112.356,84.391 112.941,89.906 114.327,94.382 C115.716,98.866 117.807,102.287 119.018,106.371 C120.768,112.273 119.748,117.59 117.51,121.899 C119.188,117.148 120.223,111.721 118.541,106.561 C117.418,103.115 115.324,99.506 113.837,95.2 C112.325,90.822 111.445,85.706 112.705,79.125 C113.131,78.018 113.568,76.933 113.989,75.816" id="Fill-139"></path>
                    <path d="M122.271,56.913 C120.656,68.468 121.06,75.344 122.33,80.765 C123.577,86.095 125.683,90.17 126.89,95.123 C128.551,101.941 127.89,107.181 126.175,112.756 C127.475,107.449 128.101,101.285 126.448,95.308 C125.35,91.339 123.225,87.203 121.89,82.019 C120.547,76.808 119.96,70.385 121.406,61.333 C121.712,59.869 121.998,58.402 122.271,56.913" id="Fill-140"></path>
                    <path d="M137.154,103.011 C130.71,95.702 126.81,86.961 125.087,77.751 C123.313,68.271 123.496,57.612 124.588,46.71 C122.841,56.757 122.707,68.445 124.714,78.546 C126.676,88.412 130.964,97.607 137.154,103.011" id="Fill-141"></path>
                    <path d="M124.73,46.491 C124.761,54.2 124.542,60.424 125.031,66.29 C125.507,72.007 126.785,77.626 129.899,84.301 C134.376,93.896 135.911,98.022 134.37,105.391 C135.578,97.104 133.586,93.582 129.592,84.906 C126.544,78.281 125.099,72.743 124.503,67.073 C123.886,61.224 124.036,54.963 124.192,46.912 C124.377,46.768 124.56,46.626 124.73,46.491" id="Fill-142"></path>
                    <path d="M120.648,61.592 C119.829,68.017 119.08,73.109 119.464,77.917 C119.839,82.634 121.423,87.308 125.096,92.901 C127.3,96.252 128.549,98.883 129.253,103.772 C128.785,98.388 127.61,95.814 125.414,92.418 C121.714,86.697 120.462,81.327 120.252,76.203 C120.034,70.902 120.748,65.584 121.133,60.354 C120.987,60.772 120.827,61.198 120.648,61.592" id="Fill-143"></path>
                    <path d="M125.699,39.378 C125.058,38.135 125.26,40.633 125.474,42.363 C127.748,58.434 129.991,68.523 131.453,77.813 C132.874,86.842 133.442,95.183 131.929,106.822 C134.133,94.904 133.255,84.893 131.557,74.711 C129.798,64.152 127.251,53.405 125.699,39.378" id="Fill-144"></path>
                    <path d="M125.576,41.348 C126.881,60.656 130.039,66.173 133.184,68.014 C136.344,69.864 139.534,68.114 140.835,71.423 C139.341,69.066 136.215,70.643 133.153,69.089 C130.099,67.539 127.089,62.785 125.765,46.842 C125.69,45.022 125.634,43.205 125.576,41.348" id="Fill-145"></path>
                    <path d="M117.42,70.503 C117.297,71.274 116.649,71.688 116.549,72.373 C115.098,82.264 116.245,87.583 118.517,91.728 C120.796,95.884 124.028,98.898 126.739,103.974 C128.25,106.802 128.211,111.885 127.225,117.836 C127.708,111.82 127.878,107.145 126.39,104.433 C123.671,99.474 120.503,96.891 118.214,92.993 C115.934,89.106 114.634,83.965 115.712,73.859 C116.281,72.774 116.86,71.64 117.42,70.503" id="Fill-146"></path>
                    <path d="M118.218,68.431 C117.655,67.399 117.672,69.25 117.783,70.516 C119.118,82.363 120.907,90.152 121.972,97.37 C123.031,104.543 123.256,111.148 121.045,119.589 C123.971,111.153 123.514,103.172 122.214,95.067 C120.91,86.941 118.925,78.647 118.218,68.431" id="Fill-147"></path>
                    <path d="M114.681,75.198 C113.623,81.768 113.272,87.472 118.298,97.882 C120.722,102.902 122.609,107.287 118.222,117.027 C122.155,105.391 119.463,102.179 117.334,97.83 C113.456,89.907 112.479,84.719 113.405,77.39 C113.824,76.682 114.255,75.925 114.681,75.198" id="Fill-148"></path>
                    <path d="M126.556,37.105 C127.65,42.711 129.092,46.662 130.534,48.13 C132.85,50.49 134.298,47.099 135.106,43.054 C136.686,35.136 133.31,28.99 139.081,25.079 C134.165,28.736 137.049,35.82 135.69,43.369 C134.871,47.923 133.242,51.694 130.489,49.283 C128.86,47.855 127.281,43.956 126.286,38.084 C126.376,37.768 126.459,37.44 126.556,37.105" id="Fill-149"></path>
                    <path d="M126.417,39.423 C128.331,48.247 130.593,56.232 133.584,59.619 C136.632,63.072 140.492,62.389 145.96,54.766 C140.609,63.255 136.624,63.869 133.458,60.28 C130.329,56.732 127.939,48.559 126.169,40.306 C126.269,40.011 126.35,39.713 126.417,39.423" id="Fill-150"></path>
                    <path d="M127.682,31.274 C128.917,41.738 131.601,47.373 133.082,53.379 C134.747,60.135 133.603,64.674 133.481,70.926 C133.306,79.88 138.555,80.013 140.815,75.437 C138.403,79.151 133.87,78.885 133.987,71.199 C134.088,64.597 135.385,60.536 133.731,53.265 C132.078,46.001 128.811,38.764 128.248,29.908 C128.074,30.482 127.876,30.703 127.682,31.274" id="Fill-151"></path>
                    <path d="M136.097,93.662 C136.591,84.651 136.918,79.67 135.852,73.861 C134.226,64.996 132.646,62.893 131.078,59.591 C129.513,56.3 127.961,51.72 126.367,37.067 C126.431,36.567 126.515,36.07 126.589,35.551 C128.158,50.47 129.753,55.211 131.366,58.644 C132.99,62.1 134.619,64.356 136.232,73.597 C137.34,79.943 136.889,85.095 136.097,93.662" id="Fill-152"></path>
                    <path d="M140.956,66.464 C142.159,56.727 141.546,51.31 138.367,48.477 C132.352,43.119 130.499,49.404 126.987,34.29 C127.069,33.822 127.138,33.333 127.257,32.831 C130.279,47.903 132.744,42.338 138.368,47.518 C142.316,51.154 142.523,57.84 140.956,66.464" id="Fill-153"></path>
                    <path d="M122.727,55.071 C121.198,68.158 122.539,76.369 124.175,83.493 C125.79,90.525 127.712,96.662 126.579,104.161 C127.525,96.354 125.255,89.806 123.518,82.667 C121.76,75.443 120.542,67.402 122.727,55.071" id="Fill-154"></path>
                    <path d="M122.678,54.674 C121.176,67.775 122.506,76.035 124.142,83.158 C125.757,90.19 127.678,96.327 126.532,103.834 C127.486,96.01 125.409,89.562 123.768,82.474 C122.1,75.267 120.856,67.188 122.678,54.674" id="Fill-155"></path>
                    <path d="M116.113,72.09 C114.934,76.484 114.473,81.058 115.156,85.64 C115.837,90.211 117.668,94.797 120.735,99.187 C123.672,103.391 125.929,107.123 122.106,117.106 C125.927,106.674 122.829,102.682 120.252,99.057 C116.048,93.144 114.591,87.622 114.452,82.978 C114.312,78.327 115.373,74.439 116.113,72.09" id="Fill-156"></path>
                    <path d="M113.141,77.181 C110.414,89.272 113.039,96.609 115.027,103.488 C117.003,110.321 118.16,116.638 111.82,124.344 C117.499,116.661 116.338,110.195 114.373,103.662 C112.386,97.056 109.732,90.462 111.851,80.479 C112.289,79.394 112.701,78.296 113.141,77.181" id="Fill-157"></path>
                    <path d="M58.422,77.392 C72.031,68.383 79.625,71.41 87.194,75.43 C94.85,79.496 102.31,84.589 112.217,79.264 C111.532,80.033 110.89,80.778 110.236,81.502 C100.631,85.082 93.687,79.88 86.4,75.863 C79.241,71.918 71.837,69.194 58.422,77.392" id="Fill-158"></path>
                    <path d="M128.6,27.431 C125.481,27.414 123.768,27.067 122.907,26.028 C120.197,22.757 125.844,14.217 121.259,7.26 C125.404,14.302 119.703,23.421 122.567,26.778 C123.502,27.874 125.411,28.693 128.4,28.231 C128.478,27.963 128.536,27.692 128.6,27.431" id="Fill-159"></path>
                    <path d="M127.95,29.535 C125.189,30.689 124.33,31.021 122.998,29.729 C122.498,29.244 121.417,27.446 120.065,26.451 C118.129,25.026 116.998,25.346 115.99,21.388 C114.901,17.115 114.66,11.3 114.7,5.3 C114.366,11.037 114.491,17.544 115.734,22.189 C116.961,26.77 118.446,25.999 119.882,27.214 C120.917,28.089 121.822,29.534 122.877,30.641 C123.794,31.601 124.767,31.906 127.922,30.17 C127.925,29.971 127.938,29.752 127.95,29.535" id="Fill-160"></path>
                    <path d="M128.193,28.711 C119.755,32.162 113.483,11.547 127.636,0 C112.22,11.842 120.618,34.257 128.193,28.711" id="Fill-161"></path>
                    <path d="M125.038,42.799 C120.54,51.204 116.04,54.857 111.447,55.308 C106.661,55.778 101.979,53.717 97.587,51.47 C91.022,48.111 87.791,49.106 82.893,51.907 C87.121,48.429 91.436,47.811 97.903,50.987 C105.645,54.788 110.599,55.493 114.507,53.948 C118.397,52.409 121.393,48.27 125.904,40.816 C125.618,41.495 125.327,42.161 125.038,42.799" id="Fill-162"></path>
                    <path d="M91.634,39.986 C97.063,49.105 104.077,53.936 110.688,53.199 C116.966,52.498 122.214,46.102 126.492,38.325 C122.913,46.764 117.071,53.535 110.251,53.974 C102.999,54.439 95.58,48.857 91.634,39.986" id="Fill-163"></path>
                    <path d="M126.122,38.471 C124.256,40.405 121.25,43.64 118.257,44.963 C111.989,47.736 110.687,43.902 108.273,35.907 C106.956,31.543 104.703,31.666 102.003,33.55 C105.589,31.677 106.786,33.098 107.861,36.146 C109.863,41.824 110.349,48.991 118.263,45.764 C121.08,44.615 123.732,41.918 125.676,39.714 C125.843,39.299 125.975,38.889 126.122,38.471" id="Fill-164"></path>
                    <path d="M124.291,46.097 C118.961,55.858 114.064,58.808 109.4,58.696 C104.477,58.576 100.131,56.136 95.477,55.088 C88.829,53.591 83.098,56.503 78.441,60.188 C84.368,56.459 89.5,54.442 95.427,55.82 C103.328,57.657 114.096,63.181 123.247,49.641 C123.602,48.474 123.938,47.304 124.291,46.097" id="Fill-165"></path>
                    <path d="M128.366,31.944 C122.474,37.726 118.528,39.052 115.302,38.625 C112.083,38.198 109.532,36.323 106.577,35.579 C102.408,34.528 98.906,35.255 94.329,36.513 C98.604,35.8 102.785,35.012 106.439,36.287 C108.856,37.131 111.411,38.949 114.671,39.492 C117.924,40.033 121.874,39.027 127.012,34.234 C127.451,33.459 127.901,32.705 128.366,31.944" id="Fill-166"></path>
                    <path d="M120.776,59.562 C119.033,62.614 116.068,67.407 112.154,69.401 C104.021,73.546 100.567,69.927 93.979,62.603 C90.46,58.69 87.047,59 83.769,61.608 C88.371,58.884 90.698,60.158 93.443,62.925 C98.575,68.098 102.111,74.977 112.405,70.068 C116.038,68.335 118.785,64.287 120.598,61.055 C120.669,60.565 120.713,60.062 120.776,59.562" id="Fill-167"></path>
                    <path d="M114.93,75.104 C106.088,79.256 99.371,75.735 92.982,72.34 C86.595,68.947 80.665,65.77 71.508,70.516 C80.915,66.366 86.203,69.466 91.853,72.914 C97.555,76.395 103.63,80.175 112.834,77.166 C113.538,76.499 114.235,75.822 114.93,75.104" id="Fill-168"></path>
                    <path d="M124.235,49.975 C113.11,66.384 106.36,61.692 97.736,60.735 C91.714,60.067 87.501,61.375 82.89,64.047 C87.324,61.909 92.357,60.445 97.714,61.311 C104.732,62.447 113.306,66.812 122.6,53.913 C123.159,52.636 123.699,51.326 124.235,49.975" id="Fill-169"></path>
                    <path d="M85.281,46.19 C91.344,55.033 98.848,59.848 106.222,59.739 C113.062,59.639 118.722,53.775 122.891,45.902 C119.477,54.335 113.164,60.544 105.733,60.387 C97.707,60.218 89.859,54.885 85.281,46.19" id="Fill-170"></path>
                    <path d="M124.652,44.151 C118.066,53.019 113.023,59.554 102.431,54.647 C93.999,50.742 91.133,48.126 85.997,51.002 C91.827,48.538 94.421,51.758 102.08,55.205 C112.71,59.99 118.015,54.951 124.801,45.282 C124.765,44.907 124.709,44.529 124.652,44.151" id="Fill-171"></path>
                    <path d="M121.287,57.958 C114.496,65.867 109.159,69.372 98.625,62.224 C95.497,59.857 93.234,58.527 89.259,58.145 C93.604,58.141 95.7,59.539 98.954,61.763 C109.57,69.017 116.24,62.645 121.658,56.613 C121.53,57.064 121.416,57.507 121.287,57.958" id="Fill-172"></path>
                    <path d="M125.535,40.313 C126.407,40.641 125.282,41.805 124.479,42.497 C116.488,48.552 110.516,50.995 104.323,51.627 C97.807,52.29 91.559,51.856 83.083,55.102 C91.62,50.836 99.134,51.66 106.253,50.53 C112.985,49.462 118.996,46.35 125.535,40.313" id="Fill-173"></path>
                    <path d="M125.395,41.771 C116.491,51.13 112.175,49.401 109.924,45.622 C107.675,41.847 107.5,36.103 105.486,35.708 C107.102,36.885 107.371,42.42 109.408,46.186 C111.451,49.962 115.318,51.968 123.097,44.803 C123.867,43.776 124.619,42.787 125.395,41.771" id="Fill-174"></path>
                    <path d="M118.165,67.544 C117.685,68.003 117.642,69.07 117.16,69.375 C110.05,73.878 105.356,73.419 101.47,71.315 C97.589,69.213 94.554,65.668 90.048,62.747 C87.564,61.137 83.451,61.471 78.611,62.901 C83.51,62.13 87.309,61.684 89.694,63.265 C94.123,66.2 96.778,69.683 100.449,71.845 C104.095,73.992 108.705,74.683 116.359,70.927 C116.974,69.857 117.562,68.704 118.165,67.544" id="Fill-175"></path>
                    <path d="M119.779,64.872 C119.41,65.398 119.023,65.891 118.642,66.325 C100.205,68.721 96.657,64.454 81.166,70.36 C89.002,66.731 94.845,66.587 100.867,66.95 C106.781,67.306 112.678,67.72 119.779,64.872" id="Fill-176"></path>
                    <path d="M115.615,72.996 C110.202,75.331 104.81,76.399 93.709,70.068 C88.373,67.025 84.137,64.17 74.692,69.003 C86.163,64.037 89.34,68.576 93.995,71.279 C102.43,76.18 107.802,77.078 114.184,75.144 C114.656,74.465 115.118,73.732 115.615,72.996" id="Fill-177"></path>
                    <path d="M126.009,38.334 C121.439,40.703 116.925,42.196 114.071,39.594 C111.217,36.992 110.115,30.531 111.392,16.468 C109.713,30.891 110.851,37.46 113.857,40.232 C116.815,42.961 121.518,41.534 125.802,39.293 C125.857,38.981 125.941,38.654 126.009,38.334" id="Fill-178"></path>
                    <path d="M127.422,31.895 C122.417,35.939 118.84,35.269 115.679,36.741 C112.16,38.381 110.867,42.969 107.351,45.644 C102.381,49.429 100.525,41.308 102.588,36.473 C101.055,41.286 102.804,48.283 107.016,44.996 C110.657,42.155 111.731,37.65 115.423,35.655 C119.172,33.629 123.65,34.251 127.769,30.267 C127.593,30.871 127.604,31.303 127.422,31.895" id="Fill-179"></path>
                    <path d="M91.882,46.547 C97.996,44.704 101.138,43.558 104.831,42.777 C110.122,41.659 111.811,42.534 114.219,43.023 C116.573,43.501 119.508,43.068 126.235,36.688 C126.414,36.295 126.581,35.879 126.767,35.467 C119.885,41.974 116.927,42.484 114.51,42.046 C112.019,41.595 110.296,40.806 104.826,42.117 C100.897,43.059 97.651,44.314 91.882,46.547" id="Fill-180"></path>
                    <path d="M107.021,32.276 C110.729,24.415 112.981,21.786 115.341,24.97 C120.033,31.302 118.531,38.258 126.5,34.668 C126.646,34.25 126.793,33.832 126.942,33.384 C119.279,37.638 120.164,30.205 115.709,24.305 C112.791,20.441 110.176,24.534 107.021,32.276" id="Fill-181"></path>
                    <path d="M123.758,49.446 C117.272,59.628 110.985,61.6 104.875,61.011 C98.363,60.383 92.692,58.118 86.153,60.588 C93.003,58.343 99.131,61.064 105.772,61.762 C111.977,62.414 118.075,60.276 123.758,49.446" id="Fill-182"></path>
                    <path d="M123.966,49.277 C117.503,59.502 111.249,61.531 105.159,60.982 C98.653,60.397 92.979,58.13 86.456,60.592 C93.31,58.358 99.31,60.814 105.84,61.372 C111.976,61.897 118.036,59.69 123.966,49.277" id="Fill-183"></path>
                    <path d="M117.902,69.773 C112.071,75.185 103.521,75.897 95.203,69.718 C91.224,66.762 87.985,64.184 79.24,69.269 C88.345,64.157 91.898,67.713 95.389,70.265 C106.708,78.537 114.963,73.07 117.902,69.773" id="Fill-184"></path>
                    <path d="M113.453,77.476 C103.652,81.727 96.339,77.869 89.466,74.273 C82.623,70.694 76.365,67.469 66.39,72.943 C75.755,68.169 82.057,71.364 88.786,74.983 C95.587,78.642 102.672,82.642 111.472,79.614 C112.124,78.921 112.778,78.197 113.453,77.476" id="Fill-185"></path>
                    <path d="M108.467,82.792 C101.92,84.421 93.298,83.112 87.439,79.173 C81.665,75.292 79.065,68.913 83.499,60.599 C78.698,68.86 81.223,75.401 86.848,79.566 C92.547,83.786 101.017,85.549 106.744,84.748 C107.321,84.123 107.894,83.457 108.467,82.792" id="Fill-186"></path>
                    <path d="M103.733,87.365 C104.215,86.636 104.698,85.907 105.174,85.168 C100.301,86.673 92.926,84.962 87.499,81.1 C82.083,77.248 78.912,71.309 81.479,64.62 C78.812,71.025 81.169,77.089 85.975,81.298 C90.86,85.573 97.982,88.052 103.733,87.365" id="Fill-187"></path>
                    <path d="M20.383,86.952 C33.53,84.61 33.487,86.649 45.029,94.349 C49.41,97.27 54.768,99.661 60.553,101.028 C53.97,99.744 48.559,97.525 44.342,94.737 C32.511,86.915 33.295,85.894 20.383,86.952" id="Fill-188"></path>
                    <path d="M15.009,88.433 C15.334,88.341 15.652,88.238 15.985,88.127 C23.747,93.8 30.342,97.288 37.863,99.444 C45.514,101.638 53.913,102.933 65.371,104.122 C55.21,103.353 46.472,102.227 38.17,100.109 C30.016,98.028 22.511,94.419 15.009,88.433" id="Fill-189"></path>
                    <path d="M14.184,88.843 C19.921,93.38 30.988,99.554 36.497,101.163 C44.764,103.579 54.491,103.718 66.39,104.581 C54.381,105.78 44.843,105.499 36.275,103.329 C27.733,101.165 20.634,96.712 14.184,88.843" id="Fill-190"></path>
                    <path d="M14.859,89.461 C21.177,95.612 26.917,99.333 33.492,101.492 C40.091,103.66 47.127,104.538 56.106,104.754 C48.436,105.05 41.307,104.405 34.296,102.21 C27.34,100.031 20.859,96.025 14.859,89.461" id="Fill-191"></path>
                    <path d="M27.119,96.682 C36.231,100.194 43.557,102.026 50.667,102.958 C57.843,103.898 64.643,103.955 72.964,103.684 C66.494,104.496 59.186,104.585 51.298,103.6 C43.465,102.623 35.181,100.57 27.119,96.682" id="Fill-192"></path>
                    <path d="M17.129,91.492 C25.325,97.788 32.269,100.681 39.093,102.142 C45.954,103.613 52.629,103.945 60.956,104.545 C53.767,104.212 47.248,104.137 40.108,102.73 C32.996,101.331 25.465,98.318 17.129,91.492" id="Fill-193"></path>
                    <path d="M17.08,88.178 C28.29,86.061 33.981,89.376 40.265,93.001 C46.92,96.839 54.367,101.262 65.557,102.54 C54.155,101.49 46.6,97.337 39.877,93.594 C33.542,90.066 27.872,86.67 17.08,88.178" id="Fill-194"></path>
                    <path d="M18.107,88.308 C30.977,87.724 36.504,92.332 43.844,96.193 C51.567,100.256 60.919,104.029 77.78,102.521 C61.103,104.436 51.688,100.91 43.786,96.944 C36.28,93.177 30.61,88.39 18.107,88.308" id="Fill-195"></path>
                    <path d="M16.494,88.201 C23.805,89.651 29.689,93.107 36.521,95.99 C43.545,98.954 51.503,101.712 61.069,102.692 C51.053,101.746 42.935,99.075 35.942,96.165 C29.113,93.323 23.401,89.872 16.494,88.201" id="Fill-196"></path>
                    <path d="M16.544,88.259 C27.648,88.695 32.988,91.855 38.897,94.989 C45.042,98.248 51.811,101.656 63.674,103.004 C51.75,101.718 44.9,98.47 38.726,95.294 C32.784,92.238 27.449,89.086 16.544,88.259" id="Fill-197"></path>
                    <path d="M20.201,89.124 C27.032,90.484 31.189,92.276 35.348,94.22 C39.568,96.192 43.862,98.284 50.353,100.393 C43.938,98.596 39.415,96.575 35.079,94.55 C30.812,92.557 26.636,90.615 20.201,89.124" id="Fill-198"></path>
                    <path d="M56.85,102.205 C48.715,101.134 41.944,98.888 35.679,96.337 C29.561,93.846 23.89,90.733 16.986,88.313 C23.912,91.116 29.501,94.315 35.574,96.761 C41.822,99.277 48.54,101.327 56.85,102.205" id="Fill-199"></path>
                    <path d="M61.72,102.788 C52.415,101.905 44.246,100.29 36.81,97.961 C29.51,95.675 23.036,92.257 16.62,88.09 C19.752,90.737 25.997,94.621 34.123,97.398 C42.422,100.234 52.472,102.353 61.72,102.788" id="Fill-200"></path>
                    <path d="M66.259,104.032 C56.346,103.649 48.351,102.682 41.233,101.017 C34.177,99.367 28.124,96.909 21.944,93.586 C25.474,96.002 31.202,98.826 38.74,100.742 C46.408,102.691 55.793,104.078 66.259,104.032" id="Fill-201"></path>
                    <path d="M34.278,83.75 C41.62,81.138 46.372,86.96 54.125,91.793 C49.241,88.269 47.371,86.457 42,83.172 C46.468,85.145 49.871,87.797 53.333,90.308 C56.914,92.905 60.589,95.399 65.366,97.456 C70.899,99.837 76.784,100.696 87.115,99.751 C76.501,102.614 68.725,102.619 61.893,101.045 C55.16,99.493 49.548,96.449 43.069,92.372 C48.743,95.592 54.148,98.801 62.424,100.543 C55.404,98.426 50.733,96.299 45.666,93.422 C39.869,90.131 38.354,87.235 34.278,83.75" id="Fill-202"></path>
                    <path d="M85.691,100.232 C75.848,101.969 68.241,101.317 61.633,99.678 C55.174,98.074 49.87,95.427 44.417,92.609 C48.091,94.776 53.228,97.681 60.093,99.601 C67.092,101.559 75.635,102.606 85.691,100.232" id="Fill-203"></path>
                    <path d="M34.61,83.808 C43.48,83.929 47.558,89.215 54.419,93.394 C59.715,96.622 64.395,98.902 72.835,100.018 C63.634,99.121 58.802,96.847 54.035,93.858 C46.01,88.827 43.495,84.95 34.61,83.808" id="Fill-204"></path>
                    <path d="M34.745,83.919 C38.333,84.624 41.114,85.922 43.527,87.273 C47.781,89.656 50.656,92.102 54.065,94.223 C57.549,96.39 61.643,98.222 68.299,99.464 C72.052,100.165 76.444,100.657 81.826,100.735 C76.73,100.839 72.253,100.484 68.163,99.764 C61.827,98.648 57.704,96.887 54.105,94.708 C50.566,92.564 47.486,90.088 43.156,87.658 C40.569,86.207 37.656,84.824 34.745,83.919" id="Fill-205"></path>
                    <path d="M81.025,100.778 C66.423,100.799 59.817,98.491 54.446,95.297 C49.247,92.206 45.46,87.966 36.187,84.569 C45.271,88.238 49.134,92.599 54.439,95.696 C59.916,98.894 66.591,101.073 81.025,100.778" id="Fill-206"></path>
                    <path d="M79.627,100.963 C68.635,101.762 59.567,99.18 52.051,95.646 C44.873,92.271 39.638,87.563 34.968,84.191 C38.997,87.109 43.892,92.059 51.092,95.605 C58.678,99.342 68.213,102.12 79.627,100.963" id="Fill-207"></path>
                    <path d="M34.874,84.088 C41.392,86.761 45.459,90.465 50.349,93.558 C55.449,96.785 61.19,99.482 70.272,100.642 C61.659,99.932 55.736,97.402 50.394,94.154 C45.276,91.043 40.995,87.132 34.874,84.088" id="Fill-208"></path>
                    <path d="M44.779,84.799 C51.051,88.325 54.781,91.892 59.32,94.652 C64.006,97.5 69.361,99.66 78.783,100.55 C69.767,99.889 64.581,98.056 59.804,95.333 C55.17,92.69 51.231,89.03 44.779,84.799" id="Fill-209"></path>
                    <path d="M1.399,91.917 C11.413,97.87 17.78,100.979 25.189,102.755 C32.356,104.473 40.728,105.48 52.927,105.657 C36.9,104.989 27.359,101.255 20.913,97.941 C14.406,94.598 10.36,91.79 1.399,91.917" id="Fill-210"></path>
                    <path d="M3.58,93.165 C17.878,93.001 25.7,103.519 48.274,105.336 C26.62,104.004 17.772,93.974 3.58,93.165" id="Fill-211"></path>
                    <path d="M1.905,92.261 C17.402,94.36 26.53,103.461 45.172,105.111 C26.812,103.772 18.073,95.178 1.905,92.261" id="Fill-212"></path>
                    <path d="M1.946,92.266 C20.829,97.17 26.157,103.876 44.248,105.236 C25.767,104.018 20.48,97.699 1.946,92.266" id="Fill-213"></path>
                    <path d="M1.855,92.134 C16.203,98.751 23.385,103.261 36.927,104.523 C23.616,103.614 15.074,98.846 1.855,92.134" id="Fill-214"></path>
                    <path d="M5.873,94.86 C19.213,98.912 22.685,102.459 36.302,104.513 C23.17,102.899 17.935,99.144 5.873,94.86" id="Fill-215"></path>
                    <path d="M0.775,91.426 C17.282,90.675 19.926,98.297 33.831,102.972 C19.685,98.542 17.297,91.146 0.775,91.426" id="Fill-216"></path>
                    <path d="M1.138,91.679 C14.992,93.067 17.641,97.063 28.5,101.441 C17.149,97.121 14.927,93.498 1.138,91.679" id="Fill-217"></path>
                    <path d="M5.319,92.131 C9.912,92.034 13.425,93.147 17.02,94.724 C20.027,96.043 22.914,98.484 28.173,100.773 C22.916,97.905 19.886,95.514 17.216,94.363 C13.285,92.618 8.712,91.379 5.319,92.131" id="Fill-218"></path>
                    <path d="M4.173,92.503 C14.643,90.679 22.318,98.388 28.956,101.008 C22.043,97.748 13.437,90.152 4.173,92.503" id="Fill-219"></path>
                    <path d="M13.722,89.095 C16.87,93.043 25.113,98.087 30.787,100.587 C23.562,97.75 16.021,92.929 13.722,89.095" id="Fill-220"></path>
                    <path d="M7.776,91.861 C9.65,91.106 11.526,90.082 13.634,89.551 C14.89,91.474 16.628,92.907 20.255,95.947 C16.022,92.759 12.205,92.15 7.776,91.861" id="Fill-221"></path>
                    <path d="M1.206,92.078 C7.836,98.525 11.944,102.065 16.949,104.476 C21.635,106.733 27.099,107.831 35.402,108.388 C25.471,107.973 17.237,106.067 9.502,100.478 C16.038,106.101 23.177,108.561 31.886,108.981 C42.73,109.506 55.155,107.543 65.289,105.619 C50.49,106.89 39.914,106.514 30.843,104.772 C21.054,102.892 14.152,98.94 1.206,92.078" id="Fill-222"></path>
                    <path d="M2.115,92.851 C15.023,99.748 25.728,104.411 36.189,105.745 C45.241,106.898 54.392,106.831 64.362,105.533 C54.451,106.94 45.516,107.29 35.937,106.107 C26.391,104.93 15.238,100.278 2.115,92.851" id="Fill-223"></path>
                    <path d="M1.598,92.556 C14.299,100.171 25.648,105.009 36.149,106.358 C45.234,107.526 52.915,107.144 62.922,105.882 C52.994,107.256 45.484,107.895 35.9,106.691 C26.315,105.488 14.332,100.576 1.598,92.556" id="Fill-224"></path>
                    <path d="M2.173,93.059 C14.183,100.953 24.915,105.539 35.446,106.925 C44.536,108.122 51.559,107.475 61.447,106.165 C51.523,107.58 44.924,108.408 35.322,107.177 C25.705,105.943 14.167,101.371 2.173,93.059" id="Fill-225"></path>
                    <path d="M3.406,94.289 C15.979,102.355 23.904,105.804 31.999,107.13 C39.974,108.436 48.256,108.151 60.382,106.239 C48.579,108.158 40.277,108.606 32.217,107.391 C24.027,106.157 15.924,102.668 3.406,94.289" id="Fill-226"></path>
                    <path d="M47.708,107.971 C37.818,108.662 30.462,108.35 23.814,106.48 C16.889,104.533 10.675,100.5 2.49,93.366 C9.948,100.403 16.705,104.755 24.031,106.743 C31.028,108.641 38.64,108.861 47.708,107.971" id="Fill-227"></path>
                    <path d="M5.58,96.246 C19.363,104.78 28.793,108.189 44.242,108.073 C28.559,108.515 19.196,105.434 5.58,96.246" id="Fill-228"></path>
                    <path d="M11.408,102.116 C25.721,110.317 41.575,108.542 58.082,106.691 C43.131,108.75 25.427,110.774 11.408,102.116" id="Fill-229"></path>
                    <path d="M13.272,103.679 C27.691,111.145 41.905,108.94 58.203,106.88 C42.881,109.013 27.907,111.507 13.272,103.679" id="Fill-230"></path>
                    <path d="M17.286,106.774 C27.962,110.166 36.13,110.357 44.715,109.351 C53.227,108.353 62.154,106.019 74.043,103.843 C63.203,108.661 57.131,113.557 49.806,115.073 C42.488,116.589 33.921,115.386 17.286,106.774" id="Fill-231"></path>
                    <path d="M18.383,107.274 C28.961,110.452 37.186,110.659 45.604,109.641 C53.935,108.635 62.456,106.193 73.321,103.687 C63.602,106.131 55.028,108.829 46.362,109.933 C37.652,111.042 28.831,110.833 18.383,107.274" id="Fill-232"></path>
                    <path d="M18.801,107.525 C27.395,110.673 34.129,111.461 41.749,110.815 C49.349,110.172 57.896,108.034 69.841,104.656 C58.226,108.432 49.446,111.214 41.655,112.051 C33.82,112.893 26.915,111.922 18.801,107.525" id="Fill-233"></path>
                    <path d="M20.981,108.394 C28.507,111.165 33.932,111.997 40.576,111.413 C47.161,110.836 55.045,108.815 67.269,105.299 C55.086,109.131 46.785,111.216 39.988,111.777 C33.126,112.344 27.699,111.367 20.981,108.394" id="Fill-234"></path>
                    <path d="M24.877,110.624 C32.586,112.872 37.676,113.354 43.826,112.459 C49.964,111.566 57.16,109.155 68.733,105.064 C57.221,109.474 49.632,112.013 43.288,112.88 C36.958,113.744 31.802,113.116 24.877,110.624" id="Fill-235"></path>
                    <path d="M43.564,80.203 C55.275,81.719 58.29,86.583 63.587,90.8 C69.06,95.156 76.925,98.829 92.435,97.452 C79.968,100.594 71.099,99.032 63.907,95.504 C60.301,93.734 57.277,91.5 54.057,88.854 C50.956,86.308 47.769,83.308 43.564,80.203" id="Fill-236"></path>
                    <path d="M46.605,80.558 C57.762,84.182 60.329,88.636 64.952,92.099 C69.68,95.641 76.226,98.337 90.814,97.675 C76.432,98.646 69.929,96.289 65.065,92.854 C60.356,89.53 57.727,84.905 46.605,80.558" id="Fill-237"></path>
                    <path d="M44.105,80.303 C55.904,84.209 58.775,89.106 63.414,92.713 C68.151,96.395 74.432,98.963 87.938,98.343 C74.694,99.271 68.235,96.914 63.244,93.328 C60.776,91.555 58.725,89.467 55.845,87.188 C53.051,84.978 49.564,82.581 44.105,80.303" id="Fill-238"></path>
                    <path d="M43.923,81.445 C49.983,84.241 53.67,89.469 59.424,93.538 C65.36,97.736 73.449,100.628 84.229,99.339 C72.613,99.886 65.085,97.167 59.627,93.258 C54.317,89.454 51.049,84.548 43.923,81.445" id="Fill-239"></path>
                    <path d="M47.042,81.152 C53.208,84.313 56.088,88.261 59.773,91.501 C63.548,94.819 68.379,97.277 76.306,98.758 C68.281,97.613 63.133,95.222 59.216,91.818 C55.399,88.502 52.596,84.393 47.042,81.152" id="Fill-240"></path>
                    <path d="M50.631,118.712 C55.373,118.717 58.642,117.854 61.633,116.525 C67.931,113.727 70.585,110.891 74.277,106.365 C71.989,110.067 71.521,111.745 70.42,115.393 C69.754,117.602 65.554,119.657 59.091,119.831 C66.887,119.113 69.263,116.054 69.469,115.265 C64.489,120.041 58.303,120.274 50.631,118.712" id="Fill-241"></path>
                    <path d="M51.951,118.865 C63.92,119.958 68.459,114.547 72.02,109.882 C68.611,115.408 64.114,120.725 51.951,118.865" id="Fill-242"></path>
                    <path d="M38.3,115.617 C48.163,118 63.489,114.948 74.309,104.262 C64.785,112.69 51.137,117.476 38.3,115.617" id="Fill-243"></path>
                    <path d="M46.013,117.666 C54.599,118.773 67.536,113.062 72.398,107.349 C69.586,111.464 59.245,117.435 50.589,118.016 C49.323,118.1 47.781,118.124 46.013,117.666" id="Fill-244"></path>
                    <path d="M40.708,116.459 C55.179,117.159 64.214,113.806 72.007,107.731 C65.489,113.842 53.771,118.013 43.171,116.99 C42.333,116.827 41.509,116.656 40.708,116.459" id="Fill-245"></path>
                    <path d="M42.079,116.74 C55.327,119.01 65.479,113.241 71.133,108.533 C65.899,113.083 55.071,119.502 42.079,116.74" id="Fill-246"></path>
                    <path d="M40.953,116.495 C51.443,117.592 58.835,115.036 63.1,113.482 C59.267,115.279 50.278,117.791 40.953,116.495" id="Fill-247"></path>
                    <path d="M50.36,118.423 C64.794,116.858 71.114,108.67 75.702,104.445 C70.513,110.211 63.104,118.189 50.36,118.423" id="Fill-248"></path>
                    <path d="M51.541,118.595 C64.211,117.952 68.437,113.135 72.499,108.873 C68.285,114.332 62.656,118.914 51.541,118.595" id="Fill-249"></path>
                    <path d="M29.367,112.5 C42.381,115.644 57.079,110.482 69.251,104.88 C57.8,111.117 43.699,115.108 33.228,113.636 C31.94,113.266 30.661,112.88 29.367,112.5" id="Fill-250"></path>
                    <path d="M32.646,113.6 C42.503,115.423 52.78,113.59 68.421,105.418 C54.079,112.571 42.809,115.298 32.646,113.6" id="Fill-251"></path>
                    <path d="M34.193,113.996 C44.033,115.856 54.369,114.133 68.862,105.163 C55.099,113.17 44.354,115.724 34.193,113.996" id="Fill-252"></path>
                    <path d="M35.826,114.895 C45.675,117.286 58.914,114.118 72.611,104.652 C60.966,111.461 48.635,116.6 35.826,114.895" id="Fill-253"></path>
                    <path d="M63.638,121.056 C74.293,119.708 71.797,109.2 81.102,102.738 C71.267,111.421 74.634,120.367 63.638,121.056" id="Fill-254"></path>
                    <path d="M48.377,115.544 C59.737,113.979 65.97,111.394 74.237,104.131 C64.942,111.124 60.555,113.11 48.377,115.544" id="Fill-255"></path>
                    <path d="M66.04,121.508 C71.102,120.999 73.199,117.674 75.094,113.729 C77.094,109.568 78.922,104.577 84.047,101.44 C78.524,106.218 76.83,111.334 75,115.135 C73.238,118.794 71.4,121.443 66.04,121.508" id="Fill-256"></path>
                    <path d="M64.463,121.297 C74.885,120.724 72.613,108.19 81.868,102.7 C71.585,110.767 76.473,120.407 64.463,121.297" id="Fill-257"></path>
                    <path d="M64.172,120.524 C74.533,116.785 68.491,110.385 80.346,102.727 C69.332,111.067 74.759,117.818 64.172,120.524" id="Fill-258"></path>
                    <path d="M65.54,119.185 C72.059,116.233 70.885,107.907 79.083,103.191 C70.721,108.843 72.542,116.844 65.54,119.185" id="Fill-259"></path>
                    <path d="M75.784,124.463 C78.839,124.501 81.764,125.808 85.629,124.926 C83.464,121.44 82.506,117.1 82.86,112.719 C83.236,108.073 84.942,103.08 88.315,98.828 C80.672,105.003 79.508,110.343 79.283,114.812 C79.071,119.013 79.725,122.692 75.784,124.463" id="Fill-260"></path>
                    <path d="M84.633,124.819 C83.527,121.66 82.363,118.027 82.42,114.073 C82.478,109.97 83.778,105.168 87.791,99.41 C83.795,104.891 82.146,109.544 81.941,113.643 C81.746,117.558 82.933,121.293 84.633,124.819" id="Fill-261"></path>
                    <path d="M77.8,124.518 C81.532,122.946 81.169,119.729 81.167,115.758 C81.165,111.624 81.576,106.455 86.881,100.217 C81.464,106.318 80.79,111.222 80.681,115.248 C80.578,119.105 80.997,122.379 77.8,124.518" id="Fill-262"></path>
                    <path d="M75.271,124.349 C77.848,122.927 77.91,119.235 78.322,115.112 C78.756,110.765 79.588,105.693 84.178,101.51 C79.715,106.272 79.127,111.417 78.801,115.682 C78.491,119.759 78.381,123.215 75.271,124.349" id="Fill-263"></path>
                    <path d="M79.377,122.911 C80.769,116.609 78.553,111.418 82.889,105.977 C78.191,110.995 80.292,116.729 79.377,122.911" id="Fill-264"></path>
                    <path d="M85.875,125.171 C84.285,119.582 83.621,115.184 83.885,111.369 C84.163,107.358 85.43,103.871 87.704,100.247 C85.616,102.599 83.949,106.441 83.415,110.85 C82.907,115.033 83.45,119.939 85.875,125.171" id="Fill-265"></path>
                    <path d="M80.019,124.844 C82.627,121.658 80.29,115.8 82.773,108.579 C81.986,111.151 81.269,124.147 82.683,124.884 C82.529,124.911 80.019,124.844 80.019,124.844" id="Fill-266"></path>
                    <path d="M87.585,125.112 C87.054,121.877 85.552,118.24 85.033,114.296 C84.492,110.19 84.928,105.526 88.255,99.848 C84.785,105.365 84.015,109.902 84.428,113.977 C84.822,117.864 86.386,121.579 87.585,125.112" id="Fill-267"></path>
                    <path d="M91.551,124.554 C89.978,121.296 88.003,117.841 87.193,113.962 C86.367,110.007 86.69,105.354 89.648,99.312 C86.42,105.065 85.859,109.903 86.653,114.003 C87.424,117.987 89.5,121.585 91.551,124.554" id="Fill-268"></path>
                    <path d="M90.804,124.764 C89.256,121.549 87.296,118.111 86.5,114.27 C85.677,110.309 86.032,105.728 89.006,99.748 C85.776,105.431 85.176,110.217 85.948,114.29 C86.698,118.254 88.779,121.809 90.804,124.764" id="Fill-269"></path>
                    <path d="M90.146,124.827 C88.611,121.604 86.66,118.194 85.877,114.399 C85.063,110.466 85.424,105.919 88.427,99.993 C85.154,105.63 84.577,110.365 85.339,114.41 C86.078,118.329 88.127,121.884 90.146,124.827" id="Fill-270"></path>
                    <path d="M88.373,124.907 C87.732,123.184 86.583,120.623 85.822,117.629 C85.051,114.593 84.647,110.981 85.747,107.025 C84.72,111.322 85.247,114.99 86.221,117.947 C87.183,120.869 88.572,123.248 89.463,124.777 C89.094,124.823 88.726,124.869 88.373,124.907" id="Fill-271"></path>
                    <path d="M93.011,124.208 C91.441,120.92 89.457,117.414 88.622,113.492 C87.768,109.482 88.071,104.727 90.958,98.556 C87.809,104.42 87.286,109.364 88.091,113.515 C88.876,117.56 90.968,121.221 93.011,124.208" id="Fill-272"></path>
                    <path d="M93.974,123.879 C92.366,120.556 90.397,117.025 89.558,113.08 C88.689,108.99 88.933,104.215 91.828,97.953 C88.692,103.909 88.17,108.894 88.999,113.117 C89.798,117.197 91.899,120.867 93.974,123.879" id="Fill-273"></path>
                    <path d="M94.938,123.551 C93.303,120.213 91.3,116.658 90.448,112.65 C89.568,108.511 89.834,103.667 92.669,97.297 C89.569,103.388 89.086,108.401 89.928,112.694 C90.739,116.818 92.845,120.506 94.938,123.551" id="Fill-274"></path>
                    <path d="M96.3,122.271 C94.713,118.95 92.756,115.43 91.947,111.381 C91.123,107.256 91.416,102.309 94.241,95.818 C91.145,102.019 90.63,107.156 91.413,111.433 C92.182,115.628 94.243,119.292 96.3,122.271" id="Fill-275"></path>
                    <path d="M97.249,121.88 C95.614,118.543 93.661,114.987 92.839,110.922 C91.998,106.76 92.262,101.734 95.076,95.151 C92.012,101.447 91.528,106.655 92.32,110.966 C93.095,115.189 95.178,118.879 97.249,121.88" id="Fill-276"></path>
                    <path d="M98.156,121.483 C96.523,118.116 94.569,114.565 93.725,110.452 C92.855,106.211 93.131,101.161 95.884,94.47 C92.875,100.864 92.383,106.114 93.192,110.504 C93.975,114.761 96.081,118.472 98.156,121.483" id="Fill-277"></path>
                    <path d="M99.455,121.874 C97.959,118.447 96.131,114.773 95.387,110.546 C94.618,106.168 94.984,100.953 97.752,94.014 C94.722,100.645 94.185,106.065 94.892,110.633 C95.563,114.971 97.496,118.799 99.455,121.874" id="Fill-278"></path>
                    <path d="M100.383,121.479 C98.855,118.028 97.003,114.33 96.238,110.011 C95.459,105.6 95.796,100.312 98.551,93.281 C95.563,99.989 95.036,105.513 95.757,110.09 C96.458,114.535 98.42,118.364 100.383,121.479" id="Fill-279"></path>
                    <path d="M101.285,121.072 C99.744,117.599 97.864,113.834 97.109,109.478 C96.339,105.037 96.607,99.672 99.344,92.538 C96.375,99.349 95.886,104.961 96.614,109.566 C97.328,114.085 99.321,117.957 101.285,121.072" id="Fill-280"></path>
                    <path d="M100.72,118.151 C99.591,114.608 98.22,110.757 98.004,106.382 C97.777,101.778 98.727,96.315 102.162,89.153 C98.523,95.975 97.359,101.652 97.505,106.429 C97.643,110.958 99.116,114.938 100.72,118.151" id="Fill-281"></path>
                    <path d="M101.548,117.883 C100.51,114.403 99.229,110.644 99.106,106.273 C98.979,101.744 99.959,96.306 103.436,89.12 C99.76,95.976 98.536,101.639 98.605,106.349 C98.671,110.842 100.035,114.733 101.548,117.883" id="Fill-282"></path>
                    <path d="M101.41,115.675 C100.689,112.501 99.739,109.063 99.942,104.887 C100.147,100.649 101.435,95.373 105.052,88.237 C101.253,95.105 99.748,100.582 99.458,104.996 C99.177,109.281 100.185,112.847 101.41,115.675" id="Fill-283"></path>
                    <path d="M104.773,87.896 C95.595,95.656 87.054,97.027 79.275,94.725 C71.547,92.439 65.273,86.82 60.304,78.747 C70.637,74.925 68.608,77.322 75.425,84.999 C82.717,93.208 90.728,95.183 104.773,87.896" id="Fill-284"></path>
                    <path d="M60.1,78.957 C65.541,86.04 70.896,91.128 77.719,93.489 C84.663,95.891 92.569,95.363 102.844,89.753 C90.215,97.367 80.084,95.591 72.82,91.652 C65.793,87.842 62.151,81.616 60.1,78.957" id="Fill-285"></path>
                    <path d="M60.621,78.814 C68.4,83.11 73.771,88.48 80.419,91.296 C87.15,94.147 94.698,94.356 105.828,86.742 C95.153,94.812 86.947,94.595 79.737,91.626 C72.64,88.703 67.085,83.138 60.621,78.814" id="Fill-286"></path>
                    <path d="M60.433,79.086 C65.708,84.665 70.406,89.292 76.381,91.893 C82.472,94.547 89.473,95.15 99.075,91.839 C89.674,95.449 82.671,95.188 76.531,92.615 C70.501,90.089 65.69,85.351 60.433,79.086" id="Fill-287"></path>
                    <path d="M60.235,78.588 C65.642,80.049 69.437,84.004 74.27,87.308 C79.241,90.706 85.116,93.482 93.839,92.851 C85.606,93.694 80.067,91.432 75.108,88.26 C70.279,85.172 66.151,81.152 60.235,78.588" id="Fill-288"></path>
                    <path d="M60.492,79.194 C66.681,84.698 71.349,88.89 76.963,91.279 C82.723,93.732 89.197,94.3 98.855,91.917 C89.089,94.584 82.796,94.171 77.148,91.757 C71.602,89.385 66.993,85.063 60.492,79.194" id="Fill-289"></path>
                    <path d="M88.225,92.5890962 C83.064,92.263 79.576,89.665 76.59,86.548 C67.814,77.388 68.723,76.392 60.741,78.622 C67.619,76.911 67.859,77.985 76.099,86.746 C78.981,89.81 83.309,92.608 88.225,92.5890962" id="Fill-290"></path>
                    <path d="M78.92,89.407 C70.481,82.426 69.764,76.516 60.927,78.689 C69.525,77.449 71.043,83.148 78.92,89.407" id="Fill-291"></path>
                    <path d="M81.942,91.169 C74.03,86.903 69.716,77.937 60.95,78.662 C70.205,81.646 72.656,86.342 81.942,91.169" id="Fill-292"></path>
                    <path d="M98.27,93.04 C88.708,95.977 81.744,96.557 75.312,94.535 C68.944,92.534 63.539,88.035 57.432,79.836 C62.703,87.843 68.206,92.632 74.839,94.836 C81.594,97.08 89.019,96.582 98.27,93.04" id="Fill-293"></path>
                    <path d="M94.61,96.082 C85.766,97.315 79.737,97.532 74.251,95.679 C68.826,93.847 64.185,90.008 58.562,82.42 C63.557,89.646 68.09,93.555 73.338,95.585 C78.637,97.637 84.383,97.855 92.233,97.013 C93.48,96.879 93.287,96.437 94.61,96.082" id="Fill-294"></path>
                    <path d="M97.33,94.202 C84.058,98.064 75.453,96.289 69.233,92.596 C63.23,89.032 59.943,83.302 56.135,78.627 C61.445,86.739 66.531,91.993 73.003,94.697 C79.564,97.438 87.044,97.562 97.33,94.202" id="Fill-295"></path>
                    <path d="M16.629,100.492 C32.689,105.202 48.89,106.122 64.51,104.466 C75.332,103.317 86.084,100.803 95.035,95.144 C104.152,89.383 111.98,80.155 117.174,68.578 C121.638,58.628 123.646,46.496 126.551,34.076 C128.295,26.628 130.171,19.381 133.182,12.833 C134.991,8.901 136.654,9.922 134.49,14.234 C131.569,20.052 129.368,26.864 127.73,34.279 C124.98,46.732 122.823,59.992 118.095,69.851 C112.491,81.541 104.604,90.652 95.612,96.339 C86.758,101.936 76.223,104.386 65.374,105.432 C49.596,106.952 33.174,105.783 16.629,100.492" id="Fill-296"></path>
                    <path d="M16.629,100.492 C32.593,105.438 49.44,106.804 65.087,105.18 C78.394,103.798 91.464,99.671 101.796,91.228 C108.507,85.743 114.246,78.136 117.985,68.896 C122.622,57.443 124.964,45.451 128.293,29.785 C129.5,24.102 131.225,19.186 133.666,14.063 C135.543,10.125 135.393,12.342 134.49,14.234 C131.684,20.109 129.368,26.864 127.73,34.279 C124.98,46.732 122.823,59.992 118.095,69.851 C112.491,81.541 104.598,90.641 95.612,96.339 C86.765,101.947 76.228,104.39 65.374,105.432 C49.595,106.946 33.174,105.783 16.629,100.492" id="Fill-297"></path>
                    <path d="M33.783,104.393 C43.33,105.512 54.427,105.583 64.51,104.466 C75.327,103.266 86.084,100.803 95.035,95.144 C104.152,89.383 111.98,80.155 117.174,68.578 C121.638,58.628 123.646,46.496 126.551,34.076 C128.295,26.628 130.43,19.495 133.182,12.833 C133.328,12.414 134.688,10.206 135.508,10.506 C134.567,10.977 132.529,15.578 131.943,17.119 C129.99,22.253 128.365,27.881 127.058,33.941 C125.819,39.69 125.014,43.691 123.469,50.083 C122.019,56.085 119.972,63.881 117.659,68.538 C111.796,80.346 104.355,89.751 95.376,95.495 C86.552,101.139 76.052,103.595 65.212,104.688 C48.209,106.403 38.1,105.025 33.783,104.393" id="Fill-298"></path>
                    <path d="M70.187,74.648 C74.277,79.874 78.013,85.506 82.894,88.761 C87.882,92.087 93.92,93.431 101.281,88.605 C107.195,84.728 113.868,75.938 120.48,59.808 C115.628,69.69 108.965,79.461 101.462,83.205 C93.946,86.955 86.098,85.742 80.74,76.134 C86.167,87.171 92.234,88.539 102.091,84.976 C96.653,88.707 93.088,89.031 89.647,87.85 C80.96,84.867 81.084,75.974 70.187,74.648" id="Fill-299"></path>
                    <path d="M69.921,74.949 C74.574,78.908 76.552,83.524 79.202,86.631 C88.214,97.195 102.016,89.641 109.472,81.51 C102.214,88.632 88.561,96.518 80.054,86.475 C77.175,83.077 74.808,78.343 69.921,74.949" id="Fill-300"></path>
                    <path d="M70.437,75.175 C78.887,76.891 85.444,87.021 91.165,88.263 C98.343,89.819 105.044,85.408 116.372,70.059 C105.775,85.855 98.432,90.186 91.076,88.819 C88.048,88.257 84.915,85.671 81.517,82.773 C78.181,79.928 74.697,76.698 70.437,75.175" id="Fill-301"></path>
                    <path d="M70.815,75.729 C81.031,82.122 83.8,88.624 89.197,89.873 C95.424,91.315 102.63,88.433 113.305,76.006 C103.006,88.298 95.211,92.42 88.403,90.307 C83.21,88.694 80.21,82.231 70.815,75.729" id="Fill-302"></path>
                    <path d="M71.121,75.604 C77.238,79.018 80.861,84.119 85.145,87.222 C89.475,90.356 94.22,91.628 101.877,87.053 C93.527,90.976 89.078,89.511 85.087,86.463 C81.11,83.427 77.812,78.663 71.121,75.604" id="Fill-303"></path>
                    <path d="M73.95,78.487 C78.227,81.792 80.561,85.685 83.919,88.201 C87.125,90.603 91.129,91.765 97.798,90.153 C91.691,92.417 87.028,91.338 83.34,88.685 C79.562,85.969 77.031,81.557 73.95,78.487" id="Fill-304"></path>
                    <path d="M82.251,79.553 C94.87,94.121 103.087,86.73 117.536,67.351 C102.558,86.244 95.709,93.325 82.251,79.553" id="Fill-305"></path>
                    <path d="M87.333,81.346 C100.689,89.168 110.813,75.971 120.17,60.133 C113.693,72.734 100.575,91.189 87.333,81.346" id="Fill-306"></path>
                    <path d="M100.75,100.568 C103.212,94.233 107.572,88.086 111.739,81.372 C116.13,74.299 119.892,65.938 122.749,56.793 C120.487,67.954 118.017,74.886 117.398,80.482 C116.801,85.869 118.386,90.7 124.223,97.171 C120.783,93.889 118.352,90.585 117.287,86.661 C116.222,82.738 116.567,78.102 118.383,71.753 C116.418,76.421 113.986,80.163 111.918,84.376 C106.543,95.325 111.34,102.019 109.515,112.024 C110.119,106.267 109.125,101.601 108.867,97.181 C108.6,92.611 109.099,88.171 112.344,82.24 C107.027,88.217 103.406,95.791 100.75,100.568" id="Fill-307"></path>
                </g>
            </g>
        </g>
    </g>
</svg>