<?xml version="1.0" encoding="UTF-8"?>
<svg width="21px" height="17px" viewBox="0 0 21 17" version="1.1" xmlns="http://www.w3.org/2000/svg" xmlns:xlink="http://www.w3.org/1999/xlink">
    <!-- Generator: Sketch 49.3 (51167) - http://www.bohemiancoding.com/sketch -->
    <title>Followers</title>
    <desc>Created with Sketch.</desc>
    <defs></defs>
    <g id="UI" stroke="none" stroke-width="1" fill="none" fill-rule="evenodd">
        <g id="Home-Screen" transform="translate(-241.000000, -34.000000)" fill="#4A4A4A">
            <g id="Nav-Bar">
                <g id="Followers" transform="translate(240.000000, 31.000000)">
                    <g id="menu">
                        <path d="M18.5741768,10.7343566 C19.2043839,10.9348771 19.777299,11.264303 20.2929228,11.7226355 C21.1809417,12.4960711 21.6249508,13.4986727 21.6249508,14.7304408 L21.6249508,17.3515283 C21.6249508,17.9530893 21.4172692,18.4615515 21.0019054,18.8769153 C20.5865416,19.2922791 20.0780795,19.4999607 19.4765184,19.4999607 L10.023416,19.4999607 C9.42185492,19.4999607 8.91339281,19.2922791 8.498029,18.8769153 C8.08266519,18.4615515 7.87498361,17.9530893 7.87498361,17.3515283 L7.87498361,14.7304408 C7.87498361,13.4986727 8.31899275,12.4960711 9.20701168,11.7226355 C9.72263545,11.264303 10.2955505,10.9348771 10.9257576,10.7343566 C10.2669052,9.87498361 9.93747869,8.90102738 9.93747869,7.81248853 C9.93747869,6.95311558 10.1523219,6.15103394 10.5820084,5.40624426 C11.0116949,4.66145459 11.5989333,4.07421619 12.343723,3.64452971 C13.0885126,3.21484324 13.8905943,3 14.7499672,3 C15.6093402,3 16.4114218,3.21484324 17.1562115,3.64452971 C17.9010012,4.07421619 18.4882396,4.66145459 18.917926,5.40624426 C19.3476125,6.15103394 19.5624557,6.95311558 19.5624557,7.81248853 C19.5624557,8.90102738 19.2330292,9.87498361 18.5741768,10.7343566 Z M14.7499672,4.37499672 C13.804657,4.37499672 12.9954143,4.71158424 12.3222386,5.38475994 C11.6490629,6.05793564 11.3124754,6.86717828 11.3124754,7.81248853 C11.3124754,8.75779877 11.6490629,9.56704142 12.3222386,10.2402171 C12.9954143,10.9133928 13.804657,11.2499803 14.7499672,11.2499803 C15.6952775,11.2499803 16.5045201,10.9133928 17.1776958,10.2402171 C17.8508715,9.56704142 18.187459,8.75779877 18.187459,7.81248853 C18.187459,6.86717828 17.8508715,6.05793564 17.1776958,5.38475994 C16.5045201,4.71158424 15.6952775,4.37499672 14.7499672,4.37499672 Z M20.2499541,17.3515283 L20.2499541,14.7304408 C20.2499541,14.1288797 20.0637569,13.577449 19.6913617,13.0761479 C19.3189665,12.5748467 18.8463114,12.2382592 18.2733963,12.0663846 L17.3710547,11.8515414 C16.5976191,12.3671652 15.7239234,12.6249771 14.7499672,12.6249771 C13.776011,12.6249771 12.9023154,12.3671652 12.1288797,11.8515414 L11.2265381,12.0663846 C10.653623,12.2382592 10.1809679,12.5748467 9.80857275,13.0761479 C9.43617758,13.577449 9.24998033,14.1288797 9.24998033,14.7304408 L9.24998033,17.3515283 C9.24998033,17.5520489 9.32875597,17.7310845 9.48630789,17.8886364 C9.64385982,18.0461883 9.82289541,18.1249639 10.023416,18.1249639 L19.4765184,18.1249639 C19.677039,18.1249639 19.8560746,18.0461883 20.0136265,17.8886364 C20.1711785,17.7310845 20.2499541,17.5520489 20.2499541,17.3515283 Z M7.18748525,17.3515283 C7.18748525,17.6093402 7.2304539,17.8671521 7.31639119,18.1249639 L2.97655779,18.1249639 C2.43228803,18.1249639 1.96679457,17.931605 1.58007674,17.5448872 C1.19335891,17.1581694 1,16.6926759 1,16.1484062 L1,14.214817 C1,13.4413814 1.2291659,12.753883 1.68749836,12.1523219 C2.08853885,11.6080522 2.60416262,11.2213343 3.23436967,10.9921684 C2.66145459,10.2473788 2.37499672,9.41665115 2.37499672,8.49998689 C2.37499672,7.35415607 2.77603721,6.38020049 3.57811885,5.57811885 C4.38020049,4.77603721 5.35415607,4.37499672 6.49998689,4.37499672 C7.10154795,4.37499672 7.67446303,4.50390266 8.21873279,4.76171455 C8.76300254,5.01952644 9.23565767,5.36327562 9.63669816,5.79296209 C9.37888627,6.45181447 9.24998033,7.12499017 9.24998033,7.81248853 C9.24998033,8.75779877 9.46482357,9.63149439 9.89451004,10.433576 C9.46482357,10.6340966 9.07810574,10.8919085 8.73435656,11.2070117 C8.33331607,11.5507609 8.00388955,11.9518014 7.74607767,12.4101338 C7.34503717,12.5533624 6.92967336,12.6249771 6.49998689,12.6249771 C5.75519721,12.6249771 5.06769885,12.4387798 4.4374918,12.0663846 L3.87889939,12.2382592 C3.42056693,12.3528425 3.05533342,12.5963311 2.78319887,12.9687262 C2.51106432,13.3411214 2.37499672,13.7564846 2.37499672,14.214817 L2.37499672,16.1484062 C2.37499672,16.3202807 2.43228803,16.4635093 2.54687131,16.5780926 C2.66145459,16.6926759 2.8046832,16.7499672 2.97655779,16.7499672 L7.18748525,16.7499672 L7.18748525,17.3515283 Z M6.49998689,5.74999344 C5.72655123,5.74999344 5.07485986,6.01496699 4.54491342,6.54491342 C4.01496699,7.07485986 3.74999344,7.72655123 3.74999344,8.49998689 C3.74999344,9.27342254 4.01496699,9.92511392 4.54491342,10.4550604 C5.07485986,10.9850068 5.72655123,11.2499803 6.49998689,11.2499803 C7.27342254,11.2499803 7.92511392,10.9850068 8.45506035,10.4550604 C8.98500679,9.92511392 9.24998033,9.27342254 9.24998033,8.49998689 C9.24998033,7.72655123 8.98500679,7.07485986 8.45506035,6.54491342 C7.92511392,6.01496699 7.27342254,5.74999344 6.49998689,5.74999344 Z"></path>
                    </g>
                </g>
            </g>
        </g>
    </g>
</svg>