<?xml version="1.0" encoding="UTF-8"?>
<svg width="50px" height="45px" viewBox="0 0 947 819" version="1.1" xmlns="http://www.w3.org/2000/svg" xmlns:xlink="http://www.w3.org/1999/xlink">
    <!-- Generator: Sketch 50.2 (55047) - http://www.bohemiancoding.com/sketch -->
    <title>Artboard</title>
    <desc>Created with Sketch.</desc>
    <defs></defs>
    <g id="Artboard" stroke="white" stroke-width="1" fill="none" fill-rule="evenodd" opacity="0.100000001">
        <path d="M943.264537,149.181553 L943.264537,149.120388 L848.76336,98.6286408 C829.513679,41.2864078 775.982091,0 712.961223,0 C667.804301,0 627.52758,21.3160194 601.228719,54.4063107 C589.962082,68.718932 581.195795,85.2334951 575.863723,103.124272 C573.965867,109.210194 572.519882,115.449029 571.525767,121.901942 L505.161057,409.652913 L159.570524,604.463592 L18.1651928,684.314563 L13.1946176,686.516505 C12.0197544,687.005825 11.0557641,687.739806 10.3930207,688.718447 C9.5796539,689.85 9.12778343,691.256796 9.12778343,692.847087 C9.12778343,696.51699 12.1402532,699.575243 15.7552169,699.575243 L15.845591,699.575243 L16.9300802,699.391748 L17.140953,699.391748 L205.84206,680.919903 L232.080672,678.350971 L212.589992,689.299515 L3.55471434,806.27767 C1.3857361,807.500971 0,809.79466 0,812.271845 C0,816.002913 3.01246978,819 6.68768291,819 C7.10942868,819 7.56129915,819 7.95292022,818.938835 L9.39890571,818.449515 L257.114296,735.723786 L318.177058,715.29466 C379.691691,766.887379 458.618399,797.989806 544.714786,797.989806 C719.22716,797.989806 864.518577,670.216019 894.613151,501.859223 C894.944522,500.60534 895.12527,499.320874 895.245769,498.005825 C898.710109,478.127184 900.487467,457.728641 900.487467,436.779612 C900.487467,420.448544 899.402977,404.362136 897.294249,388.520388 C895.577141,375.522816 893.106916,362.800485 890.154695,350.353398 C890.064321,349.89466 889.883573,349.374757 889.853448,348.977184 C888.106216,341.606796 886.268609,334.450485 884.250254,327.263592 C875.333344,296.528155 851.715581,248.23835 836.171237,221.11165 L943.234413,160.558252 C943.234413,160.558252 943.264537,160.588835 943.264537,160.558252 L944.559899,159.793689 C946.066134,158.662136 947,156.857767 947,154.83932 C947,152.300971 945.433516,150.068447 943.264537,149.181553" id="Fill-27" fill="#9B9B9B" transform="translate(473.500000, 409.500000) scale(-1, 1) translate(-473.500000, -409.500000) "></path>
    </g>
</svg>
