<?xml version="1.0" encoding="UTF-8"?>
<svg version="1.1" viewBox="0 0 448 256" xmlns="http://www.w3.org/2000/svg">
  <g fill="none" fill-rule="evenodd">
    <g fill="#4A4A4A" fill-rule="nonzero">
      <path
        d="m136.97 252.48l7.071-7.07c4.686-4.686 4.686-12.284 0-16.971l-83.928-83.444h375.89c6.627 0 12-5.373 12-12v-10c0-6.627-5.373-12-12-12h-375.89l83.928-83.444c4.686-4.686 4.686-12.284 0-16.971l-7.071-7.07c-4.686-4.686-12.284-4.686-16.97 0l-116.48 116c-4.686 4.686-4.686 12.284 0 16.971l116.48 116c4.686 4.686 12.284 4.686 16.97-1e-3z"/>
    </g>
  </g>
</svg>
