<?xml version="1.0" encoding="UTF-8"?>
<svg width="250px" height="41px" viewBox="0 0 250 41" version="1.1" xmlns="http://www.w3.org/2000/svg" xmlns:xlink="http://www.w3.org/1999/xlink">
    <!-- Generator: Sketch 50.2 (55047) - http://www.bohemiancoding.com/sketch -->
    <title>Group 29</title>
    <desc>Created with Sketch.</desc>
    <defs></defs>
    <g id="Page-1" stroke="none" stroke-width="1" fill="none" fill-rule="evenodd">
        <g id="First-screen" transform="translate(-100.000000, -50.000000)" fill="#FFFFFF">
            <g id="Topbar" transform="translate(100.000000, 50.000000)">
                <g id="Group-29">
                    <path d="M9.63199538,21.3943631 L12.7370973,21.3943631 C14.3869724,21.3943631 15.8700062,21.0918498 17.1861987,20.4883432 C18.5023911,19.8848367 19.1589425,18.4938833 19.1589425,16.3185234 C19.1589425,14.7314684 18.7387496,13.5472578 17.8952742,12.7704521 C17.0533435,11.9951666 15.755689,11.57256 14.0007657,11.5026323 L9.63199538,11.5026323 C9.77257462,11.5026323 9.84363666,11.4494264 9.84363666,11.3475752 L9.84363666,21.6011059 C9.84363666,21.4642909 9.77257462,21.3943631 9.63199538,21.3943631 M0,37.5537452 L0,19.1673176 L0,4.76828966 C0,4.18302512 0.264165391,3.6813698 0.789406518,3.26636403 C1.31619247,2.85287844 1.94802665,2.64613564 2.68490906,2.64613564 L14.1058139,2.64613564 C19.2979769,2.61117178 23.2295613,3.51719169 25.8959324,5.36571555 C28.5623035,7.21119906 30.0020822,10.0174285 30.2121786,13.7813636 C30.2121786,13.9196989 30.2214476,14.2130912 30.2384407,14.6615407 C30.2554338,15.1115103 30.2631579,15.6450891 30.2631579,16.2668377 C30.2631579,17.1302929 30.2461648,17.7520415 30.2121786,18.1320834 C30.1071304,20.4108147 29.4490341,22.5603317 28.2378899,24.5806345 C27.0282905,26.5994171 25.0802638,28.25792 22.3953548,29.5531029 C19.7119905,30.8467655 16.2114129,31.4943569 11.8951667,31.4943569 L11.8951667,36.9836823 C11.8951667,37.7437661 11.5352221,38.3822365 10.8168776,38.9006137 C10.0969883,39.4189909 9.21180248,39.6774194 8.1597754,39.6774194 L2.89655033,39.6774194 C2.08706107,39.6774194 1.40270278,39.4706766 0.841930631,39.057191 C0.281158486,38.640665 0,38.14205 0,37.5537452" id="Fill-17"></path>
                    <path d="M84.2105263,20.5 C84.2105263,16.9560472 85.0265698,13.7164735 86.6586568,10.7812791 C88.2922412,7.84608468 90.5022966,5.53494409 93.2903204,3.85091644 C96.0798416,2.16535924 99.1074379,1.32258065 102.371612,1.32258065 C103.01696,1.32258065 103.511078,1.33940563 103.850972,1.37458513 C105.822952,1.51377361 107.354718,1.73861654 108.443275,2.05217301 L108.697821,2.10417749 C109.070655,2.139357 109.361137,2.27701594 109.566271,2.52021339 C109.76841,2.76494039 109.870228,3.07696731 109.870228,3.4578237 C109.870228,3.80655967 109.802848,4.13694112 109.666592,4.44896804 L107.574825,9.29609214 C107.031295,10.7200974 106.215252,11.4313352 105.126695,11.4313352 C102.337173,11.4313352 100.083695,12.0232686 98.3677581,13.2025468 C96.6503234,14.3848841 95.5348144,16.1408004 95.0257231,18.4672364 C94.8550277,19.2671877 94.7711774,19.9784256 94.7711774,20.6024794 C94.7711774,22.4455796 95.2712848,24.0959573 96.2759915,25.555142 C97.279201,27.0143268 98.8004858,28.0039416 100.841343,28.525516 C101.928403,28.7335339 102.898671,28.8375429 103.749153,28.8375429 C105.891829,28.8375429 107.60028,28.3083208 108.876003,27.248347 C110.151726,26.1883732 110.975256,24.8423747 111.349588,23.208822 L108.492687,23.208822 C107.949157,23.208822 107.507445,23.0268063 107.167552,22.6627748 C106.826161,22.2972139 106.656963,21.8383508 106.656963,21.2815968 L106.656963,14.4537136 C106.656963,13.9336687 106.835145,13.4824533 107.193007,13.1000674 C107.549371,12.719211 107.983595,12.5264885 108.492687,12.5264885 L120.37997,12.5264885 C120.957939,12.5264885 121.434089,12.7085042 121.808421,13.0740652 C122.182752,13.4380966 122.368421,13.9000188 122.368421,14.4537136 L122.2681,18.2056844 C122.233662,18.6232498 122.190239,19.3620195 122.140827,20.4219933 C122.088421,21.4834966 122.012057,22.4624046 121.910239,23.366365 C121.604784,26.4239229 120.567136,29.1939266 118.798792,31.6779056 C117.028951,34.1618846 114.784457,36.1166415 112.06531,37.5406468 C109.343169,38.9661815 106.486268,39.6774194 103.49311,39.6774194 C100.160059,39.6774194 97.014174,38.8178158 94.0554548,37.0970791 C91.0982329,35.3778719 88.7159848,33.0407291 86.9146998,30.0871801 C85.1119175,27.1366903 84.2105263,23.9384143 84.2105263,20.5" id="Fill-19"></path>
                    <path d="M141.613509,11.6237838 L141.613509,15.7787686 L156.29348,15.7787686 C156.84969,15.7787686 157.344778,15.992617 157.777216,16.4203139 C158.209654,16.8480108 158.428165,17.3871498 158.428165,18.037731 L158.428165,22.4999347 C158.428165,23.082747 158.209654,23.6038143 157.777216,24.0646426 C157.344778,24.5269769 156.84969,24.7588971 156.29348,24.7588971 L141.613509,24.7588971 L141.613509,29.3235071 L157.02236,29.3235071 C157.613715,29.3235071 158.124083,29.5388615 158.559577,29.9650524 C158.992015,30.3927493 159.210526,30.94996 159.210526,31.6336726 L159.210526,36.0446732 C159.210526,36.6621229 158.992015,37.1997559 158.559577,37.6620902 C158.124083,38.1244245 157.613715,38.3548387 157.02236,38.3548387 L132.451325,38.3548387 C131.85997,38.3548387 131.346545,38.1244245 130.914107,37.6620902 C130.480141,37.1997559 130.263158,36.6621229 130.263158,36.0446732 L130.263158,35.8925697 L130.263158,31.6336726 L130.263158,9.36482141 L130.263158,4.90111173 C130.263158,4.25203654 130.480141,3.71440349 130.914107,3.28520063 C131.346545,2.85750375 131.85997,2.64516129 132.451325,2.64516129 L157.02236,2.64516129 C157.613715,2.64516129 158.124083,2.85750375 158.559577,3.28520063 C158.992015,3.71440349 159.210526,4.25203654 159.210526,4.90111173 L159.210526,9.36482141 C159.210526,9.9476337 158.982847,10.468701 158.532072,10.9310353 C158.081298,11.3933696 157.577041,11.6237838 157.02236,11.6237838 L141.613509,11.6237838 Z" id="Fill-21"></path>
                    <path d="M192.963909,21.3504501 C192.963909,19.8494749 192.580374,18.4684546 191.819417,17.212003 C191.053875,15.9540135 190.039265,14.9497749 188.771002,14.1992873 C187.505796,13.4487997 186.144324,13.072018 184.685058,13.072018 C183.157031,13.072018 181.761942,13.4487997 180.495207,14.1992873 C179.228473,14.9497749 178.230671,15.9540135 177.501802,17.212003 C176.772933,18.4684546 176.407735,19.8494749 176.407735,21.3504501 C176.407735,22.8529632 176.772933,24.2416729 177.501802,25.5165791 C178.230671,26.7914854 179.228473,27.8049512 180.495207,28.5554389 C181.761942,29.3059265 183.157031,29.6827082 184.685058,29.6827082 C186.144324,29.6827082 187.505796,29.3059265 188.771002,28.5554389 C190.039265,27.8049512 191.053875,26.7914854 191.819417,25.5165791 C192.580374,24.2416729 192.963909,22.8529632 192.963909,21.3504501 M165.789474,21.8225806 C165.789474,18.3638785 166.646697,15.1681545 168.364199,12.233871 C170.081702,9.2995874 172.399719,6.96815454 175.313667,5.23957239 C178.230671,3.50945236 181.407439,2.64516129 184.842445,2.64516129 C188.278978,2.64516129 191.461858,3.50945236 194.395671,5.23957239 C197.326427,6.96815454 199.652084,9.2995874 201.371115,12.233871 C203.088617,15.1681545 203.947368,18.3638785 203.947368,21.8225806 C203.947368,25.2812828 203.088617,28.4770068 201.371115,31.4112903 C199.652084,34.3455739 197.326427,36.6770068 194.395671,38.4055889 C191.461858,40.134171 188.278978,41 184.842445,41 C181.407439,41 178.230671,40.134171 175.313667,38.4055889 C172.399719,36.6770068 170.081702,34.3455739 168.364199,31.4112903 C166.646697,28.4770068 165.789474,25.2812828 165.789474,21.8225806" id="Fill-23"></path>
                    <path d="M239.508566,37.9984607 C239.30376,37.895141 237.826767,36.3992517 235.076092,33.507798 C232.325417,30.6193391 228.304049,26.3502897 223.00601,20.7036446 C222.497733,20.1930357 222.173332,19.93848 222.038789,19.93848 C221.90275,19.93848 221.817539,20.0148467 221.783155,20.1675802 C221.748772,20.3203136 221.732327,20.5688798 221.732327,20.9072892 L221.732327,36.1626646 C221.732327,36.7077134 221.537986,37.1823849 221.146314,37.5911715 C220.754642,37.9984607 220.273274,38.2006079 219.69623,38.2006079 L212.921197,38.2006079 C212.275386,38.2006079 211.714787,37.9385652 211.240893,37.4114851 C210.762515,36.884405 210.526316,36.2629895 210.526316,35.5487361 L210.526316,5.50067768 C210.526316,4.75348173 210.781949,4.09013943 211.291721,3.51214818 C211.799998,2.93415692 212.394981,2.64516129 213.072185,2.64516129 L219.391264,2.64516129 C219.966813,2.64516129 220.416787,2.72003062 220.739692,2.87276406 C221.061103,3.02699489 221.478189,3.37588599 221.986466,3.91943735 C223.54867,5.55308621 226.09454,8.21244495 229.627064,11.9035031 C233.158094,15.5945613 235.926708,18.459062 237.928423,20.5 C238.2005,20.6707021 238.387367,20.7545557 238.489022,20.7545557 C238.693828,20.7545557 238.795483,20.4835287 238.795483,19.93848 L238.795483,4.73551309 C238.795483,4.19196173 238.997299,3.70680844 239.406911,3.28155063 C239.813532,2.85629281 240.272476,2.64516129 240.782248,2.64516129 L247.249325,2.64516129 C247.996791,2.64516129 248.642602,2.91618828 249.185262,3.45973964 C249.727922,4.003291 250,4.63369079 250,5.34794424 L250,35.7014695 C250,36.3827805 249.736892,36.9952116 249.210676,37.5372656 C248.685955,38.0838117 248.080507,38.3548387 247.403303,38.3548387 L241.647814,38.3548387 C241.002003,38.3548387 240.550534,38.3293831 240.296395,38.278472 C240.042257,38.2275608 239.780644,38.1347229 239.508566,37.9984607" id="Fill-25"></path>
                    <path d="M77.4447332,7.46818521 L77.4447332,7.46512323 L72.7178361,4.93745332 C71.7549775,2.06684093 69.0773568,0 65.9250876,0 C63.6663631,0 61.6517436,1.06710232 60.3362889,2.72363704 C59.7727379,3.4401419 59.3342531,4.26687827 59.0675458,5.16250934 C58.972616,5.467177 58.9002886,5.77949963 58.8505636,6.10253921 L55.5310372,20.507655 L38.2447881,30.2600822 L31.1717709,34.2575056 L30.9231454,34.3677371 C30.8643794,34.392233 30.8161612,34.4289768 30.7830111,34.4779686 C30.7423269,34.5346154 30.7197246,34.6050411 30.7197246,34.6846527 C30.7197246,34.8683719 30.8704067,35.0214712 31.0512252,35.0214712 L31.0557457,35.0214712 L31.1099912,35.0122853 L31.120539,35.0122853 L40.5592649,34.0875653 L41.8717059,33.9589619 L40.8967928,34.5070575 L30.4409628,40.3631068 C30.3324717,40.4243465 30.2631579,40.539171 30.2631579,40.6631815 C30.2631579,40.8499627 30.41384,41 30.5976721,41 C30.6187676,41 30.6413699,41 30.6609586,40.996938 L30.733286,40.9724421 L43.1238741,36.8311053 L46.1782,35.8084018 C49.2551282,38.3911875 53.2029989,39.9482076 57.509493,39.9482076 C66.2385063,39.9482076 73.5059034,33.5517177 75.0112174,25.1235997 C75.0277925,25.060829 75.0368334,24.9965273 75.0428607,24.9306945 C75.2161451,23.9355489 75.3050475,22.9143764 75.3050475,21.865646 C75.3050475,21.0480956 75.250802,20.2427931 75.1453245,19.4497386 C75.0594357,18.7990665 74.9358764,18.1621733 74.788208,17.539059 C74.7836875,17.5160941 74.7746466,17.4900672 74.7731397,17.4701643 C74.6857441,17.1011949 74.5938281,16.7429425 74.4928711,16.3831591 C74.0468521,14.8445108 72.8655045,12.4270724 72.0879849,11.0690814 L77.4432263,8.03771471 C77.4432263,8.03771471 77.4447332,8.03924571 77.4447332,8.03771471 L77.5095265,7.99943988 C77.5848675,7.94279313 77.6315789,7.85246453 77.6315789,7.75141897 C77.6315789,7.62434653 77.5532243,7.51258402 77.4447332,7.46818521" id="Fill-27"></path>
                </g>
            </g>
        </g>
    </g>
</svg>