<?xml version="1.0" encoding="UTF-8"?>
<svg width="75px" height="75px" viewBox="0 0 75 75" version="1.1" xmlns="http://www.w3.org/2000/svg" xmlns:xlink="http://www.w3.org/1999/xlink">
    <!-- Generator: Sketch 50.2 (55047) - http://www.bohemiancoding.com/sketch -->
    <title>004-web-design</title>
    <desc>Created with Sketch.</desc>
    <defs></defs>
    <g id="Page-1" stroke="none" stroke-width="1" fill="none" fill-rule="evenodd">
        <g id="First-screen" transform="translate(-862.000000, -383.000000)" fill="#FFFFFF">
            <g id="Iphone-mocks" transform="translate(779.000000, 270.000000)">
                <g id="Respond" transform="translate(0.000000, 93.000000)">
                    <g id="Group-2" transform="translate(74.000000, 20.000000)">
                        <g id="004-web-design" transform="translate(9.000000, 0.000000)">
                            <path d="M14.509005,9.68574121 L33.8537154,9.68574121 L33.8537154,7.27349246 L14.509005,7.27349246 L14.509005,6.0678392 C14.509005,4.07298995 16.1361461,2.44993719 18.1360202,2.44993719 L43.5260705,2.44993719 C44.8603904,2.44993719 45.9443955,3.53121859 45.9443955,4.86218593 L48.3627204,4.86218593 C48.3627204,2.20100503 46.1939547,0.0376884422 43.5260705,0.0376884422 L18.1360202,0.0376884422 C14.8025819,0.0376884422 12.0906801,2.74277638 12.0906801,6.0678392 L12.0906801,12.0979899 L14.509005,12.0979899 L14.509005,9.68574121 Z" id="Fill-1"></path>
                            <path d="M14.509005,57.9269472 L14.509005,54.3090452 L19.3447103,54.3090452 L19.3447103,51.8967965 L12.0906801,51.8967965 L12.0906801,57.9269472 C12.0906801,61.2520101 14.8025819,63.957098 18.1360202,63.957098 L21.7630353,63.957098 L21.7630353,61.5448492 L18.1360202,61.5448492 C16.1361461,61.5448492 14.509005,59.9217965 14.509005,57.9269472 Z" id="Fill-2"></path>
                            <path d="M22.3142947,31.1344221 C23.5008816,30.1170226 24.1813602,28.6411432 24.1813602,27.0829146 C24.1813602,24.1398241 21.7815491,21.7460427 18.8312343,21.7460427 L18.6415617,21.7460427 C17.211272,21.7460427 15.8690176,22.3011935 14.8579345,23.3095477 L14.509005,23.6592965 L14.1583753,23.3095477 C13.1489924,22.3011935 11.8050378,21.7460427 10.3764484,21.7460427 L10.1867758,21.7460427 C7.23646096,21.7460427 4.83664987,24.1398241 4.83664987,27.0829146 C4.83664987,28.6411432 5.51693955,30.1185302 6.70428212,31.1349874 L14.509005,37.8071608 L22.3142947,31.1344221 Z M7.25403023,27.0829146 C7.25403023,25.4707915 8.56983627,24.1582915 10.1867758,24.1582915 L10.3764484,24.1582915 C11.1593199,24.1582915 11.8959068,24.4622487 12.4486776,25.0143844 L14.509005,27.0695352 L16.5693325,25.0143844 C17.1213476,24.4622487 17.8577456,24.1582915 18.6415617,24.1582915 L18.8312343,24.1582915 C20.4479849,24.1582915 21.7630353,25.4707915 21.7630353,27.0829146 C21.7630353,27.9367462 21.3897355,28.7472362 20.738728,29.3029523 L14.509005,34.6300251 L8.27833753,29.3044598 C7.62827456,28.7472362 7.25403023,27.9367462 7.25403023,27.0829146 Z" id="Fill-3"></path>
                            <path d="M29.0180101,28.9827889 C29.0180101,21.0018844 22.509068,14.5102387 14.509005,14.5102387 C6.50875315,14.5102387 0,21.0018844 0,28.9827889 C0,36.9627513 6.50875315,43.454397 14.509005,43.454397 C22.509068,43.454397 29.0180101,36.9627513 29.0180101,28.9827889 Z M2.41832494,28.9827889 C2.41832494,22.332098 7.84231738,16.9224874 14.509005,16.9224874 C21.1756927,16.9224874 26.5996851,22.332098 26.5996851,28.9827889 C26.5996851,35.6327261 21.1756927,41.0430905 14.509005,41.0430905 C7.84231738,41.0430905 2.41832494,35.6327261 2.41832494,28.9827889 Z" id="Fill-4"></path>
                            <polygon id="Fill-5" points="36.2720403 7.27349246 36.2720403 21.7460427 38.6903652 21.7460427 38.6903652 9.68574121 72.5440806 9.68574121 72.5440806 39.836495 66.4987406 39.836495 66.4987406 42.2487437 74.9624055 42.2487437 74.9624055 7.27349246"></polygon>
                            <path d="M65.2900504,21.7460427 C65.2900504,16.4263191 60.950063,12.0979899 55.6167506,12.0979899 C50.2836272,12.0979899 45.9443955,16.4263191 45.9443955,21.7460427 C45.9443955,24.6780151 47.2889169,27.4456658 49.5714106,29.2720477 L49.5714106,30.1884422 L47.1540302,30.1884422 L47.1540302,32.600691 L59.2447103,32.600691 L59.2447103,35.0129397 L58.0350756,35.0129397 L58.0350756,37.4242462 L61.6620907,37.4242462 L61.6620907,32.600691 L64.0804156,32.600691 L64.0804156,30.1884422 L61.6620907,30.1884422 L61.6620907,29.2720477 C63.9453401,27.4456658 65.2900504,24.6780151 65.2900504,21.7460427 Z M55.6167506,22.9526382 C54.9511965,22.9526382 54.4080605,22.4121859 54.4080605,21.7460427 C54.4080605,21.0806533 54.9511965,20.5403894 55.6167506,20.5403894 C56.2832494,20.5403894 56.8263854,21.0806533 56.8263854,21.7460427 C56.8263854,22.4121859 56.2832494,22.9526382 55.6167506,22.9526382 Z M59.7604534,27.6798995 L59.2447103,28.0405779 L59.2447103,30.1884422 L56.8263854,30.1884422 L56.8263854,25.1425251 C58.2298489,24.6433417 59.2447103,23.3161432 59.2447103,21.7460427 C59.2447103,19.7511935 57.6166247,18.1281407 55.6167506,18.1281407 C53.6168766,18.1281407 51.9897355,19.7511935 51.9897355,21.7460427 C51.9897355,23.3161432 53.0044081,24.6433417 54.4080605,25.1425251 L54.4080605,30.1884422 L51.9897355,30.1884422 L51.9897355,28.0405779 L51.4739924,27.6798995 C49.5256927,26.3231156 48.3627204,24.1053392 48.3627204,21.7460427 C48.3627204,17.7555905 51.6164358,14.5102387 55.6167506,14.5102387 C59.6180101,14.5102387 62.8717254,17.7555905 62.8717254,21.7460427 C62.8717254,24.1053392 61.7087531,26.3231156 59.7604534,27.6798995 Z" id="Fill-6"></path>
                            <path d="M59.2447103,39.836495 C57.7938287,39.836495 56.5046599,40.490201 55.6167506,41.5030779 C54.7297859,40.490201 53.4406171,39.836495 51.9897355,39.836495 C50.5390428,39.836495 49.2504408,40.490201 48.3627204,41.5030779 C47.475,40.490201 46.186398,39.836495 44.7357053,39.836495 C43.850063,39.836495 43.0316751,40.0927764 42.3173804,40.5071608 L42.3173804,28.9827889 C42.3173804,26.321608 40.1486146,24.1582915 37.4807305,24.1582915 C34.8137909,24.1582915 32.6450252,26.321608 32.6450252,28.9827889 L32.6450252,53.5965452 C32.6450252,53.7797111 32.5719144,53.9534548 32.4406171,54.0808417 C32.3085642,54.2104899 32.1041562,54.2576005 31.9520781,54.2766332 C31.6486776,54.2715452 31.3889169,54.0727387 31.3063602,53.7819724 L29.6510705,47.9351759 C29.1049118,46.0064698 27.3198363,44.6609925 25.3118388,44.6609925 L25.0639798,44.6609925 C22.5770781,44.6609925 20.5543451,46.6786432 20.5543451,49.1577889 C20.5543451,49.4559045 20.5830605,49.7540201 20.6421914,50.0396985 L22.2007557,57.8136935 C22.7667506,60.6410804 24.3098237,63.2187814 26.5435768,65.0775754 L30.2267003,68.1410804 L30.2267003,74.8117462 L59.2447103,74.8117462 L59.2447103,73.3984296 C59.2447103,71.520603 59.9767632,69.7547111 61.3078715,68.4282663 C63.0967254,66.6454146 64.0804156,64.2759422 64.0804156,61.7525126 L64.0804156,44.6609925 C64.0804156,42 61.9116499,39.836495 59.2447103,39.836495 Z M61.6620907,61.7525126 C61.6620907,63.6303392 60.9300378,65.3962312 59.5989295,66.7226759 C58.0484887,68.2677136 57.1031486,70.2552136 56.8779597,72.3994975 L32.6450252,72.3994975 L32.6450252,67.0096734 L28.0917506,63.2253769 C26.2800378,61.718593 25.0299748,59.6302764 24.5709068,57.3410804 L23.0110202,49.5648241 C22.9858942,49.4308417 22.97267,49.2955402 22.97267,49.1577889 C22.97267,48.0073492 23.9104534,47.0732412 25.0624685,47.0732412 L25.3105164,47.0732412 C26.2424433,47.0732412 27.0697103,47.6973618 27.3236146,48.5909548 L28.9789043,54.4392588 C29.3552267,55.7621231 30.5329345,56.6668342 31.9107053,56.6896357 C32.765932,56.7020729 33.5393577,56.3892588 34.1355793,55.803392 C34.734068,55.2160176 35.0633501,54.4334171 35.0633501,53.5965452 L35.0633501,28.9827889 C35.0633501,27.6518216 36.1473552,26.5705402 37.4807305,26.5705402 C38.8150504,26.5705402 39.8990554,27.6518216 39.8990554,28.9827889 L39.8990554,49.4845477 L42.3173804,49.4845477 L42.3173804,44.6609925 C42.3173804,43.3307789 43.4021411,42.2487437 44.7357053,42.2487437 C46.0690806,42.2487437 47.1540302,43.3307789 47.1540302,44.6609925 L47.1540302,49.4845477 L49.5714106,49.4845477 L49.5714106,44.6609925 C49.5714106,43.3307789 50.6563602,42.2487437 51.9897355,42.2487437 C53.3232997,42.2487437 54.4080605,43.3307789 54.4080605,44.6609925 L54.4080605,49.4845477 L56.8263854,49.4845477 L56.8263854,44.6609925 C56.8263854,43.3307789 57.9103904,42.2487437 59.2447103,42.2487437 C60.5780856,42.2487437 61.6620907,43.3307789 61.6620907,44.6609925 L61.6620907,61.7525126 Z" id="Fill-7"></path>
                            <polygon id="Fill-8" points="12.0906801 49.4845477 14.509005 49.4845477 14.509005 45.8666457 12.0906801 45.8666457"></polygon>
                        </g>
                    </g>
                </g>
            </g>
        </g>
    </g>
</svg>