<?xml version="1.0" encoding="UTF-8"?>
<svg width="75px" height="75px" viewBox="0 0 75 75" version="1.1" xmlns="http://www.w3.org/2000/svg" xmlns:xlink="http://www.w3.org/1999/xlink">
    <!-- Generator: Sketch 50.2 (55047) - http://www.bohemiancoding.com/sketch -->
    <title>003-review</title>
    <desc>Created with Sketch.</desc>
    <defs>
        <polygon id="path-1" points="0.0109756098 0.0729927007 33.0733537 0.0729927007 33.0733537 74.8178832 0.0109756098 74.8178832"></polygon>
    </defs>
    <g id="Page-1" stroke="none" stroke-width="1" fill="none" fill-rule="evenodd">
        <g id="First-screen" transform="translate(-1183.000000, -340.000000)">
            <g id="Iphone-mocks" transform="translate(779.000000, 270.000000)">
                <g id="Vote" transform="translate(321.000000, 50.000000)">
                    <g id="Group-3" transform="translate(83.000000, 20.000000)">
                        <g id="003-review">
                            <path d="M22.389878,12.1894161 C21.582439,12.1894161 20.9264634,12.8437956 20.9264634,13.6492701 C20.9264634,14.4554745 21.582439,15.1091241 22.389878,15.1091241 C23.1980488,15.1091241 23.8532927,14.4554745 23.8532927,13.6492701 C23.8532927,12.8437956 23.1980488,12.1894161 22.389878,12.1894161 Z" id="Fill-1" fill="#FFFFFF"></path>
                            <path d="M22.389878,53.9414234 C21.582439,53.9414234 20.9264634,54.5958029 20.9264634,55.4012774 C20.9264634,56.2074818 21.582439,56.8611314 22.389878,56.8611314 C23.1980488,56.8611314 23.8532927,56.2074818 23.8532927,55.4012774 C23.8532927,54.5958029 23.1980488,53.9414234 22.389878,53.9414234 Z" id="Fill-2" fill="#FFFFFF"></path>
                            <path d="M10.682561,12.1894161 C9.87512195,12.1894161 9.21914634,12.8437956 9.21914634,13.6492701 C9.21914634,14.4554745 9.87512195,15.1091241 10.682561,15.1091241 C11.4907317,15.1091241 12.1459756,14.4554745 12.1459756,13.6492701 C12.1459756,12.8437956 11.4907317,12.1894161 10.682561,12.1894161 Z" id="Fill-3" fill="#FFFFFF"></path>
                            <g id="Group-9">
                                <mask id="mask-2" fill="white">
                                    <use xlink:href="#path-1"></use>
                                </mask>
                                <g id="Clip-5"></g>
                                <path d="M10.682561,53.9414234 C9.87512195,53.9414234 9.21914634,54.5958029 9.21914634,55.4012774 C9.21914634,56.2074818 9.87512195,56.8611314 10.682561,56.8611314 C11.4907317,56.8611314 12.1459756,56.2074818 12.1459756,55.4012774 C12.1459756,54.5958029 11.4907317,53.9414234 10.682561,53.9414234 Z" id="Fill-4" fill="#FFFFFF" mask="url(#mask-2)"></path>
                                <path d="M28.1385366,4.99507299 C25.0031707,1.86715328 20.7742683,0.0729927007 16.5362195,0.0729927007 C12.2989024,0.0729927007 8.07018293,1.86715328 4.93408537,4.99507299 C1.79853659,8.12354015 0,12.3419708 0,16.5689781 C0,20.7967153 1.79853659,25.0153285 4.93408537,28.1430657 C8.07018293,31.2717153 12.2989024,33.0658759 16.5362195,33.0658759 C20.7742683,33.0658759 25.0031707,31.2717153 28.1385366,28.1430657 C31.2748171,25.0153285 33.0733537,20.7967153 33.0733537,16.5689781 C33.0733537,12.3419708 31.2748171,8.12354015 28.1385366,4.99507299 Z M16.5362195,30.1461679 C9.28646341,30.1461679 2.92682927,23.8020073 2.92682927,16.5689781 C2.92682927,9.33686131 9.28646341,2.99270073 16.5362195,2.99270073 C23.7868902,2.99270073 30.1465244,9.33686131 30.1465244,16.5689781 C30.1465244,23.8020073 23.7868902,30.1461679 16.5362195,30.1461679 Z" id="Fill-6" fill="#FFFFFF" mask="url(#mask-2)"></path>
                                <path d="M23.7804878,21.7312044 C23.2095732,21.1609489 22.2826829,21.1609489 21.7112195,21.7312044 C18.8579268,24.5760949 14.2154268,24.5760949 11.3614024,21.7312044 C10.7904878,21.1609489 9.86378049,21.1609489 9.29213415,21.7312044 C8.72121951,22.3014599 8.72121951,23.2260949 9.29286585,23.7956204 C11.290061,25.7872263 13.9132317,26.7830292 16.5362195,26.7830292 C19.160122,26.7830292 21.7832927,25.7872263 23.7804878,23.7956204 C24.3521341,23.2260949 24.3521341,22.3014599 23.7804878,21.7312044 Z" id="Fill-7" fill="#FFFFFF" mask="url(#mask-2)"></path>
                                <path d="M28.1385366,46.7468978 C25.0031707,43.6191606 20.7742683,41.825 16.5362195,41.825 C12.2989024,41.825 8.07018293,43.6191606 4.93408537,46.7468978 C1.79853659,49.8755474 0,54.0939781 0,58.3209854 C0,62.5487226 1.79853659,66.7671533 4.93408537,69.895073 C8.07018293,73.0237226 12.2989024,74.8178832 16.5362195,74.8178832 C20.7742683,74.8178832 25.0031707,73.0237226 28.1385366,69.895073 C31.2748171,66.7671533 33.0733537,62.5487226 33.0733537,58.3209854 C33.0733537,54.0939781 31.2748171,49.8755474 28.1385366,46.7468978 Z M16.5362195,71.8981752 C9.28646341,71.8981752 2.92682927,65.5532847 2.92682927,58.3209854 C2.92682927,51.0886861 9.28646341,44.744708 16.5362195,44.744708 C23.7868902,44.744708 30.1465244,51.0886861 30.1465244,58.3209854 C30.1465244,65.5532847 23.7868902,71.8981752 16.5362195,71.8981752 Z" id="Fill-8" fill="#FFFFFF" mask="url(#mask-2)"></path>
                            </g>
                            <path d="M23.7804878,62.6855839 C19.7860976,58.7031022 13.2872561,58.7031022 9.29286585,62.6855839 C8.72121951,63.2558394 8.72121951,64.1797445 9.29213415,64.75 C9.86378049,65.3209854 10.7904878,65.3209854 11.3621341,64.7507299 C14.2154268,61.9058394 18.8579268,61.9058394 21.7112195,64.7507299 C21.9969512,65.0357664 22.3714024,65.1782847 22.7458537,65.1782847 C23.1203049,65.1782847 23.4953049,65.0357664 23.7804878,64.75 C24.3521341,64.1797445 24.3521341,63.2558394 23.7804878,62.6855839 Z" id="Fill-10" fill="#FFFFFF"></path>
                            <path d="M70.5369512,0.0729927007 L46.6827439,0.0729927007 C44.2618902,0.0729927007 42.2925,2.03759124 42.2925,4.45255474 L42.2925,28.6863139 C42.2925,31.1012774 44.2618902,33.0658759 46.6827439,33.0658759 L70.5369512,33.0658759 C72.9570732,33.0658759 74.9271951,31.1012774 74.9271951,28.6863139 L74.9271951,4.45255474 C74.9271951,2.03759124 72.9570732,0.0729927007 70.5369512,0.0729927007 Z M72.0003659,28.6863139 C72.0003659,29.4910584 71.3436585,30.1461679 70.5369512,30.1461679 L46.6827439,30.1461679 C45.8760366,30.1461679 45.2193293,29.4910584 45.2193293,28.6863139 L45.2193293,4.45255474 C45.2193293,3.64781022 45.8760366,2.99270073 46.6827439,2.99270073 L70.5369512,2.99270073 C71.3436585,2.99270073 72.0003659,3.64781022 72.0003659,4.45255474 L72.0003659,28.6863139 Z" id="Fill-11" fill="#FFFFFF"></path>
                            <path d="M70.5369512,41.825 L46.6827439,41.825 C44.2618902,41.825 42.2925,43.7894161 42.2925,46.204562 L42.2925,70.4383212 C42.2925,72.8525547 44.2618902,74.8178832 46.6827439,74.8178832 L70.5369512,74.8178832 C72.9570732,74.8178832 74.9271951,72.8525547 74.9271951,70.4383212 L74.9271951,46.204562 C74.9271951,43.7894161 72.9570732,41.825 70.5369512,41.825 Z M72.0003659,70.4383212 C72.0003659,71.2430657 71.3436585,71.8981752 70.5369512,71.8981752 L46.6827439,71.8981752 C45.8760366,71.8981752 45.2193293,71.2430657 45.2193293,70.4383212 L45.2193293,46.204562 C45.2193293,45.3998175 45.8760366,44.744708 46.6827439,44.744708 L70.5369512,44.744708 C71.3436585,44.744708 72.0003659,45.3998175 72.0003659,46.204562 L72.0003659,70.4383212 Z" id="Fill-12" fill="#FFFFFF"></path>
                            <path d="M66.7417683,13.054927 C66.170122,12.4854015 65.2441463,12.4854015 64.6725,13.0556569 L56.9266463,20.7817518 L52.107622,15.974635 C51.5359756,15.4051095 50.61,15.4051095 50.0383537,15.974635 C49.4667073,16.5448905 49.4667073,17.4693431 50.0383537,18.0395985 L55.8920122,23.8790146 C56.1777439,24.1642336 56.5521951,24.3067518 56.9266463,24.3067518 C57.3010976,24.3067518 57.6755488,24.1642336 57.9612805,23.8790146 L66.7417683,15.1198905 C67.3134146,14.549635 67.3134146,13.6251825 66.7417683,13.054927 Z" id="Fill-13" fill="#FFFFFF"></path>
                        </g>
                    </g>
                </g>
            </g>
        </g>
    </g>
</svg>