<svg version="1" xmlns="http://www.w3.org/2000/svg" width="1040" height="1040" viewBox="0 0 780.000000 780.000000"><path d="M529.3 151.5c-31 5.6-58.2 27.6-68.8 55.6-1.3 3.5-7.6 28-14 54.4-6.3 26.4-16.3 67.8-22.2 92l-10.6 44.1-7.6 4.1C351.8 430.9 111.8 559.6 107 562.1c-3.6 1.9-6.8 3.8-7.2 4.4-1.3 1.8-.8 4.4 1 5.4 1.2.6 23.6-1.1 69.7-5.4 37.4-3.5 68.1-6.2 68.3-6.1.1.2-31.2 17.1-69.6 37.5-38.4 20.4-71.3 38.1-73.1 39.2-3.5 2.1-4 5.3-1 7.2 1.3.8 25.1-6.4 100.8-30.5l99.1-31.5 6.6 5c37.9 28.5 87.3 44.7 136.5 44.7 37.5 0 69.6-7.4 102.4-23.5 25.2-12.4 44.4-26.3 63.3-46 33.1-34.3 53.4-76.8 59.2-123.9 1.6-13.1 1.3-40.5-.5-53.2-2.1-14-6.5-32.4-10.5-43.9-3.6-10.1-15.3-34.9-23-48.6-3-5.3-4.8-9.4-4.2-9.8.6-.3 16.1-8.7 34.6-18.6 22.1-11.9 33.8-18.7 34.2-19.9.5-1.4 0-2.5-1.5-3.8-1.3-.9-15.3-8.3-31.2-16.3L632 210l-3.4-7.4c-17.1-37.2-58.5-58.5-99.3-51.1z"/></svg>