<?xml version="1.0" encoding="UTF-8"?>
<svg version="1.1" viewBox="0 0 59 50" xmlns="http://www.w3.org/2000/svg">
<g fill="none" fill-rule="evenodd">
<g fill="#777888" fill-rule="nonzero">
<path d="m52.879 6.0231c-1.1977-3.5018-4.5341-6.0231-8.4606-6.0231-2.812 0-5.3224 1.302-6.9612 3.3223-0.7009 0.87419-1.2463 1.8825-1.5792 2.9735-0.11829 0.37321-0.20871 0.75315-0.27081 1.147l-4.1353 17.566-21.529 11.895-8.8113 4.8732-0.30883 0.13449c-0.073089 0.031101-0.13224 0.076072-0.17364 0.13491-0.052388 0.068927-0.080272 0.15509-0.080272 0.25217 0 0.22443 0.18758 0.41104 0.41361 0.41104l11.842-1.1398 1.635-0.15551-14.238 7.8089c-0.13519 0.076072-0.22223 0.21435-0.22223 0.36607 0 0.22821 0.18758 0.41104 0.41657 0.41104 0.018589 0 5.2193-1.6946 15.602-5.0838l3.8053-1.2474c3.8328 3.15 8.7492 5.0497 14.113 5.0497 10.873 0 19.925-7.8022 21.8-18.08 0.020702-0.075651 0.031264-0.15551 0.038023-0.23452 0.21504-1.2129 0.32616-2.4595 0.32616-3.7376 0-0.99776-0.065907-1.9791-0.19772-2.9462-0.10731-0.79392-0.26067-1.571-0.44445-2.3309-0.12801-0.53208-0.24293-0.97044-0.36798-1.4092-0.55514-1.8753-2.0275-4.8249-2.9962-6.4791l6.6697-3.6989c0.17702-0.11432 0.23574-0.22485 0.23574-0.34884 0-0.15551-0.097171-0.29-0.23279-0.34547l-5.8881-3.0845z"/>
</g>
</g>
</svg>
